<mxfile host="65bd71144e">
    <diagram id="x45FVn4cKMyBcMMyzXoL" name="Page-1">
        <mxGraphModel dx="1696" dy="1788" grid="1" gridSize="10" guides="1" tooltips="1" connect="1" arrows="1" fold="1" page="1" pageScale="1" pageWidth="827" pageHeight="1169" math="0" shadow="0">
            <root>
                <mxCell id="0"/>
                <mxCell id="1" parent="0"/>
                <mxCell id="3" value="220 Ω" style="pointerEvents=1;verticalLabelPosition=bottom;shadow=0;dashed=0;align=center;html=1;verticalAlign=top;shape=mxgraph.electrical.resistors.resistor_1;" parent="1" vertex="1">
                    <mxGeometry x="314" y="180" width="100" height="20" as="geometry"/>
                </mxCell>
                <mxCell id="5" style="edgeStyle=none;html=1;exitX=1;exitY=0.5;exitDx=0;exitDy=0;rounded=0;curved=0;strokeColor=default;endArrow=none;endFill=0;" parent="1" edge="1">
                    <mxGeometry relative="1" as="geometry">
                        <mxPoint x="120" y="80" as="sourcePoint"/>
                        <mxPoint x="190" y="80" as="targetPoint"/>
                    </mxGeometry>
                </mxCell>
                <mxCell id="58" style="edgeStyle=none;html=1;exitX=0;exitY=0.5;exitDx=0;exitDy=0;endArrow=none;endFill=0;" parent="1" source="8" edge="1">
                    <mxGeometry relative="1" as="geometry">
                        <mxPoint x="120.04504504504507" y="190" as="targetPoint"/>
                    </mxGeometry>
                </mxCell>
                <mxCell id="8" value="" style="pointerEvents=1;verticalLabelPosition=bottom;shadow=0;dashed=0;align=center;html=1;verticalAlign=top;shape=mxgraph.electrical.miscellaneous.batteryStack;rotation=-90;" parent="1" vertex="1">
                    <mxGeometry x="70" y="100" width="100" height="60" as="geometry"/>
                </mxCell>
                <mxCell id="9" value="+5 V" style="text;html=1;align=center;verticalAlign=middle;resizable=0;points=[];autosize=1;strokeColor=none;fillColor=none;" parent="1" vertex="1">
                    <mxGeometry x="46" y="118" width="50" height="30" as="geometry"/>
                </mxCell>
                <mxCell id="10" value="Created by Ihor Chernyshev&lt;div&gt;TEJ3M Unit 4-20&lt;/div&gt;&lt;div&gt;Chips&lt;/div&gt;" style="text;html=1;align=left;verticalAlign=middle;resizable=0;points=[];autosize=1;strokeColor=none;fillColor=none;" parent="1" vertex="1">
                    <mxGeometry x="70" y="-510" width="180" height="60" as="geometry"/>
                </mxCell>
                <mxCell id="14" value="+" style="text;html=1;align=center;verticalAlign=middle;resizable=0;points=[];autosize=1;strokeColor=none;fillColor=none;" parent="1" vertex="1">
                    <mxGeometry x="65" y="68" width="30" height="30" as="geometry"/>
                </mxCell>
                <mxCell id="15" value="-" style="text;html=1;align=center;verticalAlign=middle;resizable=0;points=[];autosize=1;strokeColor=none;fillColor=none;" parent="1" vertex="1">
                    <mxGeometry x="65" y="148" width="30" height="30" as="geometry"/>
                </mxCell>
                <mxCell id="16" value="Sum" style="text;html=1;align=center;verticalAlign=middle;resizable=0;points=[];autosize=1;strokeColor=none;fillColor=none;" parent="1" vertex="1">
                    <mxGeometry x="391" y="150" width="50" height="30" as="geometry"/>
                </mxCell>
                <mxCell id="17" value="&lt;div&gt;&lt;font color=&quot;#000000&quot;&gt;2- Bit Adder with chips&lt;/font&gt;&lt;/div&gt;" style="text;html=1;align=center;verticalAlign=middle;resizable=0;points=[];autosize=1;strokeColor=none;fillColor=none;" parent="1" vertex="1">
                    <mxGeometry x="-210" y="-495" width="140" height="30" as="geometry"/>
                </mxCell>
                <mxCell id="25" value="" style="edgeStyle=none;html=1;exitX=0;exitY=0.5;exitDx=0;exitDy=0;entryDx=0;entryDy=0;entryPerimeter=0;endArrow=none;endFill=0;entryX=0;entryY=0.5;" parent="1" source="60" target="3" edge="1">
                    <mxGeometry relative="1" as="geometry">
                        <mxPoint x="120" y="189.77" as="sourcePoint"/>
                        <mxPoint x="250" y="189.77" as="targetPoint"/>
                    </mxGeometry>
                </mxCell>
                <mxCell id="27" value="Input A1" style="text;html=1;align=center;verticalAlign=middle;resizable=0;points=[];autosize=1;strokeColor=none;fillColor=none;" parent="1" vertex="1">
                    <mxGeometry x="200" y="102.9" width="70" height="30" as="geometry"/>
                </mxCell>
                <mxCell id="29" style="edgeStyle=none;html=1;exitX=1;exitY=0.12;exitDx=0;exitDy=0;endArrow=none;endFill=0;" parent="1" source="28" edge="1">
                    <mxGeometry relative="1" as="geometry">
                        <mxPoint x="190" y="190" as="targetPoint"/>
                    </mxGeometry>
                </mxCell>
                <mxCell id="28" value="" style="html=1;shape=mxgraph.electrical.electro-mechanical.twoWaySwitch;aspect=fixed;elSwitchState=2;rotation=-180;" parent="1" vertex="1">
                    <mxGeometry x="190" y="76.9" width="75" height="26" as="geometry"/>
                </mxCell>
                <mxCell id="34" style="edgeStyle=orthogonalEdgeStyle;html=1;entryX=1;entryY=0.5;entryDx=0;entryDy=0;rounded=0;endArrow=none;endFill=0;exitX=1;exitY=0.88;exitDx=0;exitDy=0;" parent="1" source="42" target="8" edge="1">
                    <mxGeometry relative="1" as="geometry">
                        <mxPoint x="120" y="-80" as="sourcePoint"/>
                        <Array as="points">
                            <mxPoint x="120" y="-80"/>
                        </Array>
                    </mxGeometry>
                </mxCell>
                <mxCell id="11" value="" style="verticalLabelPosition=bottom;shadow=0;dashed=0;align=center;html=1;verticalAlign=top;shape=mxgraph.electrical.opto_electronics.led_2;pointerEvents=1;rotation=-180;" parent="1" vertex="1">
                    <mxGeometry x="414" y="160" width="100" height="70" as="geometry"/>
                </mxCell>
                <mxCell id="43" style="edgeStyle=orthogonalEdgeStyle;html=1;exitX=1;exitY=0.12;exitDx=0;exitDy=0;endArrow=none;endFill=0;rounded=0;curved=0;" parent="1" source="42" edge="1">
                    <mxGeometry relative="1" as="geometry">
                        <mxPoint x="190" y="140" as="targetPoint"/>
                        <Array as="points">
                            <mxPoint x="130" y="-40"/>
                            <mxPoint x="150" y="-40"/>
                            <mxPoint x="150" y="42"/>
                            <mxPoint x="180" y="42"/>
                            <mxPoint x="180" y="140"/>
                        </Array>
                    </mxGeometry>
                </mxCell>
                <mxCell id="42" value="" style="html=1;shape=mxgraph.electrical.electro-mechanical.twoWaySwitch;aspect=fixed;elSwitchState=2;rotation=-180;" parent="1" vertex="1">
                    <mxGeometry x="130" y="-83" width="75" height="26" as="geometry"/>
                </mxCell>
                <mxCell id="44" value="Input B1" style="text;html=1;align=center;verticalAlign=middle;resizable=0;points=[];autosize=1;strokeColor=none;fillColor=none;" parent="1" vertex="1">
                    <mxGeometry x="130" y="-110" width="70" height="30" as="geometry"/>
                </mxCell>
                <mxCell id="61" value="" style="edgeStyle=none;html=1;exitX=0;exitY=0.5;exitDx=0;exitDy=0;entryDx=0;entryDy=0;entryPerimeter=0;endArrow=none;endFill=0;entryX=0;entryY=0.5;" parent="1" target="60" edge="1">
                    <mxGeometry relative="1" as="geometry">
                        <mxPoint x="120" y="189.77" as="sourcePoint"/>
                        <mxPoint x="314" y="190" as="targetPoint"/>
                    </mxGeometry>
                </mxCell>
                <mxCell id="60" value="" style="shape=ellipse;fillColor=#000000;strokeColor=none;html=1;sketch=0;" parent="1" vertex="1">
                    <mxGeometry x="185" y="185" width="10" height="10" as="geometry"/>
                </mxCell>
                <mxCell id="62" value="" style="shape=ellipse;fillColor=#000000;strokeColor=none;html=1;sketch=0;" parent="1" vertex="1">
                    <mxGeometry x="185" y="135" width="10" height="10" as="geometry"/>
                </mxCell>
                <mxCell id="66" value="" style="shape=ellipse;fillColor=#000000;strokeColor=none;html=1;sketch=0;" parent="1" vertex="1">
                    <mxGeometry x="115" y="76.9" width="10" height="10" as="geometry"/>
                </mxCell>
                <mxCell id="99" style="edgeStyle=orthogonalEdgeStyle;html=1;exitX=0;exitY=0.5;exitDx=0;exitDy=0;exitPerimeter=0;entryX=0;entryY=0.5;entryDx=0;entryDy=0;rounded=0;curved=0;endArrow=none;endFill=0;" parent="1" source="95" target="60" edge="1">
                    <mxGeometry relative="1" as="geometry">
                        <Array as="points">
                            <mxPoint x="190" y="270"/>
                            <mxPoint x="190" y="190"/>
                        </Array>
                    </mxGeometry>
                </mxCell>
                <mxCell id="95" value="220 Ω" style="pointerEvents=1;verticalLabelPosition=bottom;shadow=0;dashed=0;align=center;html=1;verticalAlign=top;shape=mxgraph.electrical.resistors.resistor_1;" parent="1" vertex="1">
                    <mxGeometry x="314" y="260" width="100" height="20" as="geometry"/>
                </mxCell>
                <mxCell id="96" value="Cout" style="text;html=1;align=center;verticalAlign=middle;resizable=0;points=[];autosize=1;strokeColor=none;fillColor=none;" parent="1" vertex="1">
                    <mxGeometry x="391" y="230" width="50" height="30" as="geometry"/>
                </mxCell>
                <mxCell id="97" value="" style="verticalLabelPosition=bottom;shadow=0;dashed=0;align=center;html=1;verticalAlign=top;shape=mxgraph.electrical.opto_electronics.led_2;pointerEvents=1;rotation=-180;" parent="1" vertex="1">
                    <mxGeometry x="414" y="240" width="100" height="70" as="geometry"/>
                </mxCell>
                <mxCell id="102" value="Cin" style="text;html=1;align=center;verticalAlign=middle;resizable=0;points=[];autosize=1;strokeColor=none;fillColor=none;" parent="1" vertex="1">
                    <mxGeometry x="344" y="20" width="40" height="30" as="geometry"/>
                </mxCell>
                <UserObject label="&lt;table style=&quot;table-layout: fixed; font-size: 10pt; font-family: Arial; width: 0px; border-collapse: collapse; border: none;&quot; data-sheets-baot=&quot;1&quot; data-sheets-root=&quot;1&quot; border=&quot;1&quot; dir=&quot;ltr&quot; cellpadding=&quot;0&quot; cellspacing=&quot;0&quot; xmlns=&quot;http://www.w3.org/1999/xhtml&quot;&gt;&lt;colgroup&gt;&lt;col width=&quot;23&quot;&gt;&lt;col width=&quot;23&quot;&gt;&lt;col width=&quot;16&quot;&gt;&lt;col width=&quot;23&quot;&gt;&lt;col width=&quot;23&quot;&gt;&lt;col width=&quot;16&quot;&gt;&lt;col width=&quot;43&quot;&gt;&lt;col width=&quot;46&quot;&gt;&lt;col width=&quot;46&quot;&gt;&lt;/colgroup&gt;&lt;tbody&gt;&lt;tr style=&quot;height: 21px;&quot;&gt;&lt;td style=&quot;border: 1px solid rgb(204, 204, 204); overflow: hidden; padding: 2px 3px; vertical-align: bottom; font-size: 12pt; font-weight: bold; text-align: center;&quot;&gt;A₂&lt;/td&gt;&lt;td style=&quot;border: 1px solid rgb(204, 204, 204); overflow: hidden; padding: 2px 3px; vertical-align: bottom; font-size: 12pt; font-weight: bold; text-align: center;&quot;&gt;A₁&lt;/td&gt;&lt;td style=&quot;border: 1px solid rgb(204, 204, 204); overflow: hidden; padding: 2px 3px; vertical-align: bottom; font-size: 12pt; font-weight: bold; text-align: center;&quot;&gt;+&lt;/td&gt;&lt;td style=&quot;border: 1px solid rgb(204, 204, 204); overflow: hidden; padding: 2px 3px; vertical-align: bottom; font-size: 12pt; font-weight: bold; text-align: center;&quot;&gt;B₂&lt;/td&gt;&lt;td style=&quot;border: 1px solid rgb(204, 204, 204); overflow: hidden; padding: 2px 3px; vertical-align: bottom; font-size: 12pt; font-weight: bold; text-align: center;&quot;&gt;B₁&lt;/td&gt;&lt;td style=&quot;border: 1px solid rgb(204, 204, 204); overflow: hidden; padding: 2px 3px; vertical-align: bottom; background-color: rgb(0, 0, 0);&quot;&gt;&lt;/td&gt;&lt;td style=&quot;border: 1px solid rgb(204, 204, 204); overflow: hidden; padding: 2px 3px; vertical-align: bottom; font-size: 12pt; font-weight: bold; text-align: center;&quot;&gt;Cout&lt;/td&gt;&lt;td style=&quot;border: 1px solid rgb(204, 204, 204); overflow: hidden; padding: 2px 3px; vertical-align: bottom; font-size: 12pt; font-weight: bold; text-align: center;&quot;&gt;Sum₂&lt;/td&gt;&lt;td style=&quot;border: 1px solid rgb(204, 204, 204); overflow: hidden; padding: 2px 3px; vertical-align: bottom; font-size: 12pt; font-weight: bold; text-align: center;&quot;&gt;Sum₁&lt;/td&gt;&lt;/tr&gt;&lt;tr style=&quot;height: 21px;&quot;&gt;&lt;td style=&quot;border: 1px solid rgb(204, 204, 204); overflow: hidden; padding: 2px 3px; vertical-align: bottom; text-align: center;&quot;&gt;0&lt;/td&gt;&lt;td style=&quot;border: 1px solid rgb(204, 204, 204); overflow: hidden; padding: 2px 3px; vertical-align: bottom; text-align: center;&quot;&gt;0&lt;/td&gt;&lt;td style=&quot;border: 1px solid rgb(204, 204, 204); overflow: hidden; padding: 2px 3px; vertical-align: bottom; text-align: center;&quot;&gt;+&lt;/td&gt;&lt;td style=&quot;border: 1px solid rgb(204, 204, 204); overflow: hidden; padding: 2px 3px; vertical-align: bottom; text-align: center;&quot;&gt;0&lt;/td&gt;&lt;td style=&quot;border: 1px solid rgb(204, 204, 204); overflow: hidden; padding: 2px 3px; vertical-align: bottom; text-align: center;&quot;&gt;0&lt;/td&gt;&lt;td style=&quot;border: 1px solid rgb(204, 204, 204); overflow: hidden; padding: 2px 3px; vertical-align: bottom; background-color: rgb(0, 0, 0);&quot;&gt;&lt;/td&gt;&lt;td style=&quot;border: 1px solid rgb(204, 204, 204); overflow: hidden; padding: 2px 3px; vertical-align: bottom; text-align: center;&quot;&gt;0&lt;/td&gt;&lt;td style=&quot;border: 1px solid rgb(204, 204, 204); overflow: hidden; padding: 2px 3px; vertical-align: bottom; text-align: center;&quot;&gt;0&lt;/td&gt;&lt;td style=&quot;border: 1px solid rgb(204, 204, 204); overflow: hidden; padding: 2px 3px; vertical-align: bottom; text-align: center;&quot;&gt;0&lt;/td&gt;&lt;/tr&gt;&lt;tr style=&quot;height: 21px;&quot;&gt;&lt;td style=&quot;border: 1px solid rgb(204, 204, 204); overflow: hidden; padding: 2px 3px; vertical-align: bottom; text-align: center;&quot;&gt;0&lt;/td&gt;&lt;td style=&quot;border: 1px solid rgb(204, 204, 204); overflow: hidden; padding: 2px 3px; vertical-align: bottom; text-align: center;&quot;&gt;0&lt;/td&gt;&lt;td style=&quot;border: 1px solid rgb(204, 204, 204); overflow: hidden; padding: 2px 3px; vertical-align: bottom; text-align: center;&quot;&gt;+&lt;/td&gt;&lt;td style=&quot;border: 1px solid rgb(204, 204, 204); overflow: hidden; padding: 2px 3px; vertical-align: bottom; text-align: center;&quot;&gt;0&lt;/td&gt;&lt;td style=&quot;border: 1px solid rgb(204, 204, 204); overflow: hidden; padding: 2px 3px; vertical-align: bottom; text-align: center;&quot;&gt;1&lt;/td&gt;&lt;td style=&quot;border: 1px solid rgb(204, 204, 204); overflow: hidden; padding: 2px 3px; vertical-align: bottom; background-color: rgb(0, 0, 0);&quot;&gt;&lt;/td&gt;&lt;td style=&quot;border: 1px solid rgb(204, 204, 204); overflow: hidden; padding: 2px 3px; vertical-align: bottom; text-align: center;&quot;&gt;0&lt;/td&gt;&lt;td style=&quot;border: 1px solid rgb(204, 204, 204); overflow: hidden; padding: 2px 3px; vertical-align: bottom; text-align: center;&quot;&gt;0&lt;/td&gt;&lt;td style=&quot;border: 1px solid rgb(204, 204, 204); overflow: hidden; padding: 2px 3px; vertical-align: bottom; text-align: center;&quot;&gt;1&lt;/td&gt;&lt;/tr&gt;&lt;tr style=&quot;height: 21px;&quot;&gt;&lt;td style=&quot;border: 1px solid rgb(204, 204, 204); overflow: hidden; padding: 2px 3px; vertical-align: bottom; text-align: center;&quot;&gt;0&lt;/td&gt;&lt;td style=&quot;border: 1px solid rgb(204, 204, 204); overflow: hidden; padding: 2px 3px; vertical-align: bottom; text-align: center;&quot;&gt;0&lt;/td&gt;&lt;td style=&quot;border: 1px solid rgb(204, 204, 204); overflow: hidden; padding: 2px 3px; vertical-align: bottom; text-align: center;&quot;&gt;+&lt;/td&gt;&lt;td style=&quot;border: 1px solid rgb(204, 204, 204); overflow: hidden; padding: 2px 3px; vertical-align: bottom; text-align: center;&quot;&gt;1&lt;/td&gt;&lt;td style=&quot;border: 1px solid rgb(204, 204, 204); overflow: hidden; padding: 2px 3px; vertical-align: bottom; text-align: center;&quot;&gt;0&lt;/td&gt;&lt;td style=&quot;border: 1px solid rgb(204, 204, 204); overflow: hidden; padding: 2px 3px; vertical-align: bottom; background-color: rgb(0, 0, 0);&quot;&gt;&lt;/td&gt;&lt;td style=&quot;border: 1px solid rgb(204, 204, 204); overflow: hidden; padding: 2px 3px; vertical-align: bottom; text-align: center;&quot;&gt;0&lt;/td&gt;&lt;td style=&quot;border: 1px solid rgb(204, 204, 204); overflow: hidden; padding: 2px 3px; vertical-align: bottom; text-align: center;&quot;&gt;1&lt;/td&gt;&lt;td style=&quot;border: 1px solid rgb(204, 204, 204); overflow: hidden; padding: 2px 3px; vertical-align: bottom; text-align: center;&quot;&gt;0&lt;/td&gt;&lt;/tr&gt;&lt;tr style=&quot;height: 21px;&quot;&gt;&lt;td style=&quot;border: 1px solid rgb(204, 204, 204); overflow: hidden; padding: 2px 3px; vertical-align: bottom; text-align: center;&quot;&gt;0&lt;/td&gt;&lt;td style=&quot;border: 1px solid rgb(204, 204, 204); overflow: hidden; padding: 2px 3px; vertical-align: bottom; text-align: center;&quot;&gt;0&lt;/td&gt;&lt;td style=&quot;border: 1px solid rgb(204, 204, 204); overflow: hidden; padding: 2px 3px; vertical-align: bottom; text-align: center;&quot;&gt;+&lt;/td&gt;&lt;td style=&quot;border: 1px solid rgb(204, 204, 204); overflow: hidden; padding: 2px 3px; vertical-align: bottom; text-align: center;&quot;&gt;1&lt;/td&gt;&lt;td style=&quot;border: 1px solid rgb(204, 204, 204); overflow: hidden; padding: 2px 3px; vertical-align: bottom; text-align: center;&quot;&gt;1&lt;/td&gt;&lt;td style=&quot;border: 1px solid rgb(204, 204, 204); overflow: hidden; padding: 2px 3px; vertical-align: bottom; background-color: rgb(0, 0, 0);&quot;&gt;&lt;/td&gt;&lt;td style=&quot;border: 1px solid rgb(204, 204, 204); overflow: hidden; padding: 2px 3px; vertical-align: bottom; text-align: center;&quot;&gt;0&lt;/td&gt;&lt;td style=&quot;border: 1px solid rgb(204, 204, 204); overflow: hidden; padding: 2px 3px; vertical-align: bottom; text-align: center;&quot;&gt;1&lt;/td&gt;&lt;td style=&quot;border: 1px solid rgb(204, 204, 204); overflow: hidden; padding: 2px 3px; vertical-align: bottom; text-align: center;&quot;&gt;1&lt;/td&gt;&lt;/tr&gt;&lt;tr style=&quot;height: 21px;&quot;&gt;&lt;td style=&quot;border: 1px solid rgb(204, 204, 204); overflow: hidden; padding: 2px 3px; vertical-align: bottom; text-align: center;&quot;&gt;0&lt;/td&gt;&lt;td style=&quot;border: 1px solid rgb(204, 204, 204); overflow: hidden; padding: 2px 3px; vertical-align: bottom; text-align: center;&quot;&gt;1&lt;/td&gt;&lt;td style=&quot;border: 1px solid rgb(204, 204, 204); overflow: hidden; padding: 2px 3px; vertical-align: bottom; text-align: center;&quot;&gt;+&lt;/td&gt;&lt;td style=&quot;border: 1px solid rgb(204, 204, 204); overflow: hidden; padding: 2px 3px; vertical-align: bottom; text-align: center;&quot;&gt;0&lt;/td&gt;&lt;td style=&quot;border: 1px solid rgb(204, 204, 204); overflow: hidden; padding: 2px 3px; vertical-align: bottom; text-align: center;&quot;&gt;0&lt;/td&gt;&lt;td style=&quot;border: 1px solid rgb(204, 204, 204); overflow: hidden; padding: 2px 3px; vertical-align: bottom; background-color: rgb(0, 0, 0);&quot;&gt;&lt;/td&gt;&lt;td style=&quot;border: 1px solid rgb(204, 204, 204); overflow: hidden; padding: 2px 3px; vertical-align: bottom; text-align: center;&quot;&gt;0&lt;/td&gt;&lt;td style=&quot;border: 1px solid rgb(204, 204, 204); overflow: hidden; padding: 2px 3px; vertical-align: bottom; text-align: center;&quot;&gt;0&lt;/td&gt;&lt;td style=&quot;border: 1px solid rgb(204, 204, 204); overflow: hidden; padding: 2px 3px; vertical-align: bottom; text-align: center;&quot;&gt;1&lt;/td&gt;&lt;/tr&gt;&lt;tr style=&quot;height: 21px;&quot;&gt;&lt;td style=&quot;border: 1px solid rgb(204, 204, 204); overflow: hidden; padding: 2px 3px; vertical-align: bottom; text-align: center;&quot;&gt;0&lt;/td&gt;&lt;td style=&quot;border: 1px solid rgb(204, 204, 204); overflow: hidden; padding: 2px 3px; vertical-align: bottom; text-align: center;&quot;&gt;1&lt;/td&gt;&lt;td style=&quot;border: 1px solid rgb(204, 204, 204); overflow: hidden; padding: 2px 3px; vertical-align: bottom; text-align: center;&quot;&gt;+&lt;/td&gt;&lt;td style=&quot;border: 1px solid rgb(204, 204, 204); overflow: hidden; padding: 2px 3px; vertical-align: bottom; text-align: center;&quot;&gt;0&lt;/td&gt;&lt;td style=&quot;border: 1px solid rgb(204, 204, 204); overflow: hidden; padding: 2px 3px; vertical-align: bottom; text-align: center;&quot;&gt;1&lt;/td&gt;&lt;td style=&quot;border: 1px solid rgb(204, 204, 204); overflow: hidden; padding: 2px 3px; vertical-align: bottom; background-color: rgb(0, 0, 0);&quot;&gt;&lt;/td&gt;&lt;td style=&quot;border: 1px solid rgb(204, 204, 204); overflow: hidden; padding: 2px 3px; vertical-align: bottom; text-align: center;&quot;&gt;0&lt;/td&gt;&lt;td style=&quot;border: 1px solid rgb(204, 204, 204); overflow: hidden; padding: 2px 3px; vertical-align: bottom; text-align: center;&quot;&gt;1&lt;/td&gt;&lt;td style=&quot;border: 1px solid rgb(204, 204, 204); overflow: hidden; padding: 2px 3px; vertical-align: bottom; text-align: center;&quot;&gt;0&lt;/td&gt;&lt;/tr&gt;&lt;tr style=&quot;height: 21px;&quot;&gt;&lt;td style=&quot;border: 1px solid rgb(204, 204, 204); overflow: hidden; padding: 2px 3px; vertical-align: bottom; text-align: center;&quot;&gt;0&lt;/td&gt;&lt;td style=&quot;border: 1px solid rgb(204, 204, 204); overflow: hidden; padding: 2px 3px; vertical-align: bottom; text-align: center;&quot;&gt;1&lt;/td&gt;&lt;td style=&quot;border: 1px solid rgb(204, 204, 204); overflow: hidden; padding: 2px 3px; vertical-align: bottom; text-align: center;&quot;&gt;+&lt;/td&gt;&lt;td style=&quot;border: 1px solid rgb(204, 204, 204); overflow: hidden; padding: 2px 3px; vertical-align: bottom; text-align: center;&quot;&gt;1&lt;/td&gt;&lt;td style=&quot;border: 1px solid rgb(204, 204, 204); overflow: hidden; padding: 2px 3px; vertical-align: bottom; text-align: center;&quot;&gt;0&lt;/td&gt;&lt;td style=&quot;border: 1px solid rgb(204, 204, 204); overflow: hidden; padding: 2px 3px; vertical-align: bottom; background-color: rgb(0, 0, 0);&quot;&gt;&lt;/td&gt;&lt;td style=&quot;border: 1px solid rgb(204, 204, 204); overflow: hidden; padding: 2px 3px; vertical-align: bottom; text-align: center;&quot;&gt;0&lt;/td&gt;&lt;td style=&quot;border: 1px solid rgb(204, 204, 204); overflow: hidden; padding: 2px 3px; vertical-align: bottom; text-align: center;&quot;&gt;1&lt;/td&gt;&lt;td style=&quot;border: 1px solid rgb(204, 204, 204); overflow: hidden; padding: 2px 3px; vertical-align: bottom; text-align: center;&quot;&gt;1&lt;/td&gt;&lt;/tr&gt;&lt;tr style=&quot;height: 21px;&quot;&gt;&lt;td style=&quot;border: 1px solid rgb(204, 204, 204); overflow: hidden; padding: 2px 3px; vertical-align: bottom; text-align: center;&quot;&gt;0&lt;/td&gt;&lt;td style=&quot;border: 1px solid rgb(204, 204, 204); overflow: hidden; padding: 2px 3px; vertical-align: bottom; text-align: center;&quot;&gt;1&lt;/td&gt;&lt;td style=&quot;border: 1px solid rgb(204, 204, 204); overflow: hidden; padding: 2px 3px; vertical-align: bottom; text-align: center;&quot;&gt;+&lt;/td&gt;&lt;td style=&quot;border: 1px solid rgb(204, 204, 204); overflow: hidden; padding: 2px 3px; vertical-align: bottom; text-align: center;&quot;&gt;1&lt;/td&gt;&lt;td style=&quot;border: 1px solid rgb(204, 204, 204); overflow: hidden; padding: 2px 3px; vertical-align: bottom; text-align: center;&quot;&gt;1&lt;/td&gt;&lt;td style=&quot;border: 1px solid rgb(204, 204, 204); overflow: hidden; padding: 2px 3px; vertical-align: bottom; background-color: rgb(0, 0, 0);&quot;&gt;&lt;/td&gt;&lt;td style=&quot;border: 1px solid rgb(204, 204, 204); overflow: hidden; padding: 2px 3px; vertical-align: bottom; text-align: center;&quot;&gt;1&lt;/td&gt;&lt;td style=&quot;border: 1px solid rgb(204, 204, 204); overflow: hidden; padding: 2px 3px; vertical-align: bottom; text-align: center;&quot;&gt;0&lt;/td&gt;&lt;td style=&quot;border: 1px solid rgb(204, 204, 204); overflow: hidden; padding: 2px 3px; vertical-align: bottom; text-align: center;&quot;&gt;0&lt;/td&gt;&lt;/tr&gt;&lt;tr style=&quot;height: 21px;&quot;&gt;&lt;td style=&quot;border: 1px solid rgb(204, 204, 204); overflow: hidden; padding: 2px 3px; vertical-align: bottom; text-align: center;&quot;&gt;1&lt;/td&gt;&lt;td style=&quot;border: 1px solid rgb(204, 204, 204); overflow: hidden; padding: 2px 3px; vertical-align: bottom; text-align: center;&quot;&gt;0&lt;/td&gt;&lt;td style=&quot;border: 1px solid rgb(204, 204, 204); overflow: hidden; padding: 2px 3px; vertical-align: bottom; text-align: center;&quot;&gt;+&lt;/td&gt;&lt;td style=&quot;border: 1px solid rgb(204, 204, 204); overflow: hidden; padding: 2px 3px; vertical-align: bottom; text-align: center;&quot;&gt;0&lt;/td&gt;&lt;td style=&quot;border: 1px solid rgb(204, 204, 204); overflow: hidden; padding: 2px 3px; vertical-align: bottom; text-align: center;&quot;&gt;0&lt;/td&gt;&lt;td style=&quot;border: 1px solid rgb(204, 204, 204); overflow: hidden; padding: 2px 3px; vertical-align: bottom; background-color: rgb(0, 0, 0);&quot;&gt;&lt;/td&gt;&lt;td style=&quot;border: 1px solid rgb(204, 204, 204); overflow: hidden; padding: 2px 3px; vertical-align: bottom; text-align: center;&quot;&gt;0&lt;/td&gt;&lt;td style=&quot;border: 1px solid rgb(204, 204, 204); overflow: hidden; padding: 2px 3px; vertical-align: bottom; text-align: center;&quot;&gt;1&lt;/td&gt;&lt;td style=&quot;border: 1px solid rgb(204, 204, 204); overflow: hidden; padding: 2px 3px; vertical-align: bottom; text-align: center;&quot;&gt;0&lt;/td&gt;&lt;/tr&gt;&lt;tr style=&quot;height: 21px;&quot;&gt;&lt;td style=&quot;border: 1px solid rgb(204, 204, 204); overflow: hidden; padding: 2px 3px; vertical-align: bottom; text-align: center;&quot;&gt;1&lt;/td&gt;&lt;td style=&quot;border: 1px solid rgb(204, 204, 204); overflow: hidden; padding: 2px 3px; vertical-align: bottom; text-align: center;&quot;&gt;0&lt;/td&gt;&lt;td style=&quot;border: 1px solid rgb(204, 204, 204); overflow: hidden; padding: 2px 3px; vertical-align: bottom; text-align: center;&quot;&gt;+&lt;/td&gt;&lt;td style=&quot;border: 1px solid rgb(204, 204, 204); overflow: hidden; padding: 2px 3px; vertical-align: bottom; text-align: center;&quot;&gt;0&lt;/td&gt;&lt;td style=&quot;border: 1px solid rgb(204, 204, 204); overflow: hidden; padding: 2px 3px; vertical-align: bottom; text-align: center;&quot;&gt;1&lt;/td&gt;&lt;td style=&quot;border: 1px solid rgb(204, 204, 204); overflow: hidden; padding: 2px 3px; vertical-align: bottom; background-color: rgb(0, 0, 0);&quot;&gt;&lt;/td&gt;&lt;td style=&quot;border: 1px solid rgb(204, 204, 204); overflow: hidden; padding: 2px 3px; vertical-align: bottom; text-align: center;&quot;&gt;0&lt;/td&gt;&lt;td style=&quot;border: 1px solid rgb(204, 204, 204); overflow: hidden; padding: 2px 3px; vertical-align: bottom; text-align: center;&quot;&gt;1&lt;/td&gt;&lt;td style=&quot;border: 1px solid rgb(204, 204, 204); overflow: hidden; padding: 2px 3px; vertical-align: bottom; text-align: center;&quot;&gt;1&lt;/td&gt;&lt;/tr&gt;&lt;tr style=&quot;height: 21px;&quot;&gt;&lt;td style=&quot;border: 1px solid rgb(204, 204, 204); overflow: hidden; padding: 2px 3px; vertical-align: bottom; text-align: center;&quot;&gt;1&lt;/td&gt;&lt;td style=&quot;border: 1px solid rgb(204, 204, 204); overflow: hidden; padding: 2px 3px; vertical-align: bottom; text-align: center;&quot;&gt;0&lt;/td&gt;&lt;td style=&quot;border: 1px solid rgb(204, 204, 204); overflow: hidden; padding: 2px 3px; vertical-align: bottom; text-align: center;&quot;&gt;+&lt;/td&gt;&lt;td style=&quot;border: 1px solid rgb(204, 204, 204); overflow: hidden; padding: 2px 3px; vertical-align: bottom; text-align: center;&quot;&gt;1&lt;/td&gt;&lt;td style=&quot;border: 1px solid rgb(204, 204, 204); overflow: hidden; padding: 2px 3px; vertical-align: bottom; text-align: center;&quot;&gt;0&lt;/td&gt;&lt;td style=&quot;border: 1px solid rgb(204, 204, 204); overflow: hidden; padding: 2px 3px; vertical-align: bottom; background-color: rgb(0, 0, 0);&quot;&gt;&lt;/td&gt;&lt;td style=&quot;border: 1px solid rgb(204, 204, 204); overflow: hidden; padding: 2px 3px; vertical-align: bottom; text-align: center;&quot;&gt;1&lt;/td&gt;&lt;td style=&quot;border: 1px solid rgb(204, 204, 204); overflow: hidden; padding: 2px 3px; vertical-align: bottom; text-align: center;&quot;&gt;0&lt;/td&gt;&lt;td style=&quot;border: 1px solid rgb(204, 204, 204); overflow: hidden; padding: 2px 3px; vertical-align: bottom; text-align: center;&quot;&gt;0&lt;/td&gt;&lt;/tr&gt;&lt;tr style=&quot;height: 21px;&quot;&gt;&lt;td style=&quot;border: 1px solid rgb(204, 204, 204); overflow: hidden; padding: 2px 3px; vertical-align: bottom; text-align: center;&quot;&gt;1&lt;/td&gt;&lt;td style=&quot;border: 1px solid rgb(204, 204, 204); overflow: hidden; padding: 2px 3px; vertical-align: bottom; text-align: center;&quot;&gt;0&lt;/td&gt;&lt;td style=&quot;border: 1px solid rgb(204, 204, 204); overflow: hidden; padding: 2px 3px; vertical-align: bottom; text-align: center;&quot;&gt;+&lt;/td&gt;&lt;td style=&quot;border: 1px solid rgb(204, 204, 204); overflow: hidden; padding: 2px 3px; vertical-align: bottom; text-align: center;&quot;&gt;1&lt;/td&gt;&lt;td style=&quot;border: 1px solid rgb(204, 204, 204); overflow: hidden; padding: 2px 3px; vertical-align: bottom; text-align: center;&quot;&gt;1&lt;/td&gt;&lt;td style=&quot;border: 1px solid rgb(204, 204, 204); overflow: hidden; padding: 2px 3px; vertical-align: bottom; background-color: rgb(0, 0, 0);&quot;&gt;&lt;/td&gt;&lt;td style=&quot;border: 1px solid rgb(204, 204, 204); overflow: hidden; padding: 2px 3px; vertical-align: bottom; text-align: center;&quot;&gt;1&lt;/td&gt;&lt;td style=&quot;border: 1px solid rgb(204, 204, 204); overflow: hidden; padding: 2px 3px; vertical-align: bottom; text-align: center;&quot;&gt;0&lt;/td&gt;&lt;td style=&quot;border: 1px solid rgb(204, 204, 204); overflow: hidden; padding: 2px 3px; vertical-align: bottom; text-align: center;&quot;&gt;1&lt;/td&gt;&lt;/tr&gt;&lt;tr style=&quot;height: 21px;&quot;&gt;&lt;td style=&quot;border: 1px solid rgb(204, 204, 204); overflow: hidden; padding: 2px 3px; vertical-align: bottom; text-align: center;&quot;&gt;1&lt;/td&gt;&lt;td style=&quot;border: 1px solid rgb(204, 204, 204); overflow: hidden; padding: 2px 3px; vertical-align: bottom; text-align: center;&quot;&gt;1&lt;/td&gt;&lt;td style=&quot;border: 1px solid rgb(204, 204, 204); overflow: hidden; padding: 2px 3px; vertical-align: bottom; text-align: center;&quot;&gt;+&lt;/td&gt;&lt;td style=&quot;border: 1px solid rgb(204, 204, 204); overflow: hidden; padding: 2px 3px; vertical-align: bottom; text-align: center;&quot;&gt;0&lt;/td&gt;&lt;td style=&quot;border: 1px solid rgb(204, 204, 204); overflow: hidden; padding: 2px 3px; vertical-align: bottom; text-align: center;&quot;&gt;0&lt;/td&gt;&lt;td style=&quot;border: 1px solid rgb(204, 204, 204); overflow: hidden; padding: 2px 3px; vertical-align: bottom; background-color: rgb(0, 0, 0);&quot;&gt;&lt;/td&gt;&lt;td style=&quot;border: 1px solid rgb(204, 204, 204); overflow: hidden; padding: 2px 3px; vertical-align: bottom; text-align: center;&quot;&gt;0&lt;/td&gt;&lt;td style=&quot;border: 1px solid rgb(204, 204, 204); overflow: hidden; padding: 2px 3px; vertical-align: bottom; text-align: center;&quot;&gt;1&lt;/td&gt;&lt;td style=&quot;border: 1px solid rgb(204, 204, 204); overflow: hidden; padding: 2px 3px; vertical-align: bottom; text-align: center;&quot;&gt;1&lt;/td&gt;&lt;/tr&gt;&lt;tr style=&quot;height: 21px;&quot;&gt;&lt;td style=&quot;border: 1px solid rgb(204, 204, 204); overflow: hidden; padding: 2px 3px; vertical-align: bottom; text-align: center;&quot;&gt;1&lt;/td&gt;&lt;td style=&quot;border: 1px solid rgb(204, 204, 204); overflow: hidden; padding: 2px 3px; vertical-align: bottom; text-align: center;&quot;&gt;1&lt;/td&gt;&lt;td style=&quot;border: 1px solid rgb(204, 204, 204); overflow: hidden; padding: 2px 3px; vertical-align: bottom; text-align: center;&quot;&gt;+&lt;/td&gt;&lt;td style=&quot;border: 1px solid rgb(204, 204, 204); overflow: hidden; padding: 2px 3px; vertical-align: bottom; text-align: center;&quot;&gt;0&lt;/td&gt;&lt;td style=&quot;border: 1px solid rgb(204, 204, 204); overflow: hidden; padding: 2px 3px; vertical-align: bottom; text-align: center;&quot;&gt;1&lt;/td&gt;&lt;td style=&quot;border: 1px solid rgb(204, 204, 204); overflow: hidden; padding: 2px 3px; vertical-align: bottom; background-color: rgb(0, 0, 0);&quot;&gt;&lt;/td&gt;&lt;td style=&quot;border: 1px solid rgb(204, 204, 204); overflow: hidden; padding: 2px 3px; vertical-align: bottom; text-align: center;&quot;&gt;1&lt;/td&gt;&lt;td style=&quot;border: 1px solid rgb(204, 204, 204); overflow: hidden; padding: 2px 3px; vertical-align: bottom; text-align: center;&quot;&gt;0&lt;/td&gt;&lt;td style=&quot;border: 1px solid rgb(204, 204, 204); overflow: hidden; padding: 2px 3px; vertical-align: bottom; text-align: center;&quot;&gt;0&lt;/td&gt;&lt;/tr&gt;&lt;tr style=&quot;height: 21px;&quot;&gt;&lt;td style=&quot;border: 1px solid rgb(204, 204, 204); overflow: hidden; padding: 2px 3px; vertical-align: bottom; text-align: center;&quot;&gt;1&lt;/td&gt;&lt;td style=&quot;border: 1px solid rgb(204, 204, 204); overflow: hidden; padding: 2px 3px; vertical-align: bottom; text-align: center;&quot;&gt;1&lt;/td&gt;&lt;td style=&quot;border: 1px solid rgb(204, 204, 204); overflow: hidden; padding: 2px 3px; vertical-align: bottom; text-align: center;&quot;&gt;+&lt;/td&gt;&lt;td style=&quot;border: 1px solid rgb(204, 204, 204); overflow: hidden; padding: 2px 3px; vertical-align: bottom; text-align: center;&quot;&gt;1&lt;/td&gt;&lt;td style=&quot;border: 1px solid rgb(204, 204, 204); overflow: hidden; padding: 2px 3px; vertical-align: bottom; text-align: center;&quot;&gt;0&lt;/td&gt;&lt;td style=&quot;border: 1px solid rgb(204, 204, 204); overflow: hidden; padding: 2px 3px; vertical-align: bottom; background-color: rgb(0, 0, 0);&quot;&gt;&lt;/td&gt;&lt;td style=&quot;border: 1px solid rgb(204, 204, 204); overflow: hidden; padding: 2px 3px; vertical-align: bottom; text-align: center;&quot;&gt;1&lt;/td&gt;&lt;td style=&quot;border: 1px solid rgb(204, 204, 204); overflow: hidden; padding: 2px 3px; vertical-align: bottom; text-align: center;&quot;&gt;0&lt;/td&gt;&lt;td style=&quot;border: 1px solid rgb(204, 204, 204); overflow: hidden; padding: 2px 3px; vertical-align: bottom; text-align: center;&quot;&gt;1&lt;/td&gt;&lt;/tr&gt;&lt;tr style=&quot;height: 21px;&quot;&gt;&lt;td style=&quot;border: 1px solid rgb(204, 204, 204); overflow: hidden; padding: 2px 3px; vertical-align: bottom; text-align: center;&quot;&gt;1&lt;/td&gt;&lt;td style=&quot;border: 1px solid rgb(204, 204, 204); overflow: hidden; padding: 2px 3px; vertical-align: bottom; text-align: center;&quot;&gt;1&lt;/td&gt;&lt;td style=&quot;border: 1px solid rgb(204, 204, 204); overflow: hidden; padding: 2px 3px; vertical-align: bottom; text-align: center;&quot;&gt;+&lt;/td&gt;&lt;td style=&quot;border: 1px solid rgb(204, 204, 204); overflow: hidden; padding: 2px 3px; vertical-align: bottom; text-align: center;&quot;&gt;1&lt;/td&gt;&lt;td style=&quot;border: 1px solid rgb(204, 204, 204); overflow: hidden; padding: 2px 3px; vertical-align: bottom; text-align: center;&quot;&gt;1&lt;/td&gt;&lt;td style=&quot;border: 1px solid rgb(204, 204, 204); overflow: hidden; padding: 2px 3px; vertical-align: bottom; background-color: rgb(0, 0, 0);&quot;&gt;&lt;/td&gt;&lt;td style=&quot;border: 1px solid rgb(204, 204, 204); overflow: hidden; padding: 2px 3px; vertical-align: bottom; text-align: center;&quot;&gt;1&lt;/td&gt;&lt;td style=&quot;border: 1px solid rgb(204, 204, 204); overflow: hidden; padding: 2px 3px; vertical-align: bottom; text-align: center;&quot;&gt;1&lt;/td&gt;&lt;td style=&quot;border: 1px solid rgb(204, 204, 204); overflow: hidden; padding: 2px 3px; vertical-align: bottom; text-align: center;&quot;&gt;0&lt;/td&gt;&lt;/tr&gt;&lt;tr style=&quot;height: 21px;&quot;&gt;&lt;td style=&quot;border: 1px solid rgb(204, 204, 204); overflow: hidden; padding: 2px 3px; vertical-align: bottom; text-align: center;&quot;&gt;0&lt;/td&gt;&lt;td style=&quot;border: 1px solid rgb(204, 204, 204); overflow: hidden; padding: 2px 3px; vertical-align: bottom; text-align: center;&quot;&gt;0&lt;/td&gt;&lt;td style=&quot;border: 1px solid rgb(204, 204, 204); overflow: hidden; padding: 2px 3px; vertical-align: bottom; text-align: center;&quot;&gt;-&lt;/td&gt;&lt;td style=&quot;border: 1px solid rgb(204, 204, 204); overflow: hidden; padding: 2px 3px; vertical-align: bottom; text-align: center;&quot;&gt;0&lt;/td&gt;&lt;td style=&quot;border: 1px solid rgb(204, 204, 204); overflow: hidden; padding: 2px 3px; vertical-align: bottom; text-align: center;&quot;&gt;0&lt;/td&gt;&lt;td style=&quot;border: 1px solid rgb(204, 204, 204); overflow: hidden; padding: 2px 3px; vertical-align: bottom; background-color: rgb(0, 0, 0);&quot;&gt;&lt;/td&gt;&lt;td style=&quot;border: 1px solid rgb(204, 204, 204); overflow: hidden; padding: 2px 3px; vertical-align: bottom; text-align: center;&quot;&gt;1&lt;/td&gt;&lt;td style=&quot;border: 1px solid rgb(204, 204, 204); overflow: hidden; padding: 2px 3px; vertical-align: bottom; text-align: center;&quot;&gt;0&lt;/td&gt;&lt;td style=&quot;border: 1px solid rgb(204, 204, 204); overflow: hidden; padding: 2px 3px; vertical-align: bottom; text-align: center;&quot;&gt;0&lt;/td&gt;&lt;/tr&gt;&lt;tr style=&quot;height: 21px;&quot;&gt;&lt;td style=&quot;border: 1px solid rgb(204, 204, 204); overflow: hidden; padding: 2px 3px; vertical-align: bottom; text-align: center;&quot;&gt;0&lt;/td&gt;&lt;td style=&quot;border: 1px solid rgb(204, 204, 204); overflow: hidden; padding: 2px 3px; vertical-align: bottom; text-align: center;&quot;&gt;0&lt;/td&gt;&lt;td style=&quot;border: 1px solid rgb(204, 204, 204); overflow: hidden; padding: 2px 3px; vertical-align: bottom; text-align: center;&quot;&gt;-&lt;/td&gt;&lt;td style=&quot;border: 1px solid rgb(204, 204, 204); overflow: hidden; padding: 2px 3px; vertical-align: bottom; text-align: center;&quot;&gt;0&lt;/td&gt;&lt;td style=&quot;border: 1px solid rgb(204, 204, 204); overflow: hidden; padding: 2px 3px; vertical-align: bottom; text-align: center;&quot;&gt;1&lt;/td&gt;&lt;td style=&quot;border: 1px solid rgb(204, 204, 204); overflow: hidden; padding: 2px 3px; vertical-align: bottom; background-color: rgb(0, 0, 0);&quot;&gt;&lt;/td&gt;&lt;td style=&quot;border: 1px solid rgb(204, 204, 204); overflow: hidden; padding: 2px 3px; vertical-align: bottom; text-align: center;&quot;&gt;0&lt;/td&gt;&lt;td style=&quot;border: 1px solid rgb(204, 204, 204); overflow: hidden; padding: 2px 3px; vertical-align: bottom; text-align: center;&quot;&gt;1&lt;/td&gt;&lt;td style=&quot;border: 1px solid rgb(204, 204, 204); overflow: hidden; padding: 2px 3px; vertical-align: bottom; text-align: center;&quot;&gt;1&lt;/td&gt;&lt;/tr&gt;&lt;tr style=&quot;height: 21px;&quot;&gt;&lt;td style=&quot;border: 1px solid rgb(204, 204, 204); overflow: hidden; padding: 2px 3px; vertical-align: bottom; text-align: center;&quot;&gt;0&lt;/td&gt;&lt;td style=&quot;border: 1px solid rgb(204, 204, 204); overflow: hidden; padding: 2px 3px; vertical-align: bottom; text-align: center;&quot;&gt;0&lt;/td&gt;&lt;td style=&quot;border: 1px solid rgb(204, 204, 204); overflow: hidden; padding: 2px 3px; vertical-align: bottom; text-align: center;&quot;&gt;-&lt;/td&gt;&lt;td style=&quot;border: 1px solid rgb(204, 204, 204); overflow: hidden; padding: 2px 3px; vertical-align: bottom; text-align: center;&quot;&gt;1&lt;/td&gt;&lt;td style=&quot;border: 1px solid rgb(204, 204, 204); overflow: hidden; padding: 2px 3px; vertical-align: bottom; text-align: center;&quot;&gt;0&lt;/td&gt;&lt;td style=&quot;border: 1px solid rgb(204, 204, 204); overflow: hidden; padding: 2px 3px; vertical-align: bottom; background-color: rgb(0, 0, 0);&quot;&gt;&lt;/td&gt;&lt;td style=&quot;border: 1px solid rgb(204, 204, 204); overflow: hidden; padding: 2px 3px; vertical-align: bottom; text-align: center;&quot;&gt;0&lt;/td&gt;&lt;td style=&quot;border: 1px solid rgb(204, 204, 204); overflow: hidden; padding: 2px 3px; vertical-align: bottom; text-align: center;&quot;&gt;1&lt;/td&gt;&lt;td style=&quot;border: 1px solid rgb(204, 204, 204); overflow: hidden; padding: 2px 3px; vertical-align: bottom; text-align: center;&quot;&gt;0&lt;/td&gt;&lt;/tr&gt;&lt;tr style=&quot;height: 21px;&quot;&gt;&lt;td style=&quot;border: 1px solid rgb(204, 204, 204); overflow: hidden; padding: 2px 3px; vertical-align: bottom; text-align: center;&quot;&gt;0&lt;/td&gt;&lt;td style=&quot;border: 1px solid rgb(204, 204, 204); overflow: hidden; padding: 2px 3px; vertical-align: bottom; text-align: center;&quot;&gt;0&lt;/td&gt;&lt;td style=&quot;border: 1px solid rgb(204, 204, 204); overflow: hidden; padding: 2px 3px; vertical-align: bottom; text-align: center;&quot;&gt;-&lt;/td&gt;&lt;td style=&quot;border: 1px solid rgb(204, 204, 204); overflow: hidden; padding: 2px 3px; vertical-align: bottom; text-align: center;&quot;&gt;1&lt;/td&gt;&lt;td style=&quot;border: 1px solid rgb(204, 204, 204); overflow: hidden; padding: 2px 3px; vertical-align: bottom; text-align: center;&quot;&gt;1&lt;/td&gt;&lt;td style=&quot;border: 1px solid rgb(204, 204, 204); overflow: hidden; padding: 2px 3px; vertical-align: bottom; background-color: rgb(0, 0, 0);&quot;&gt;&lt;/td&gt;&lt;td style=&quot;border: 1px solid rgb(204, 204, 204); overflow: hidden; padding: 2px 3px; vertical-align: bottom; text-align: center;&quot;&gt;0&lt;/td&gt;&lt;td style=&quot;border: 1px solid rgb(204, 204, 204); overflow: hidden; padding: 2px 3px; vertical-align: bottom; text-align: center;&quot;&gt;0&lt;/td&gt;&lt;td style=&quot;border: 1px solid rgb(204, 204, 204); overflow: hidden; padding: 2px 3px; vertical-align: bottom; text-align: center;&quot;&gt;1&lt;/td&gt;&lt;/tr&gt;&lt;tr style=&quot;height: 21px;&quot;&gt;&lt;td style=&quot;border: 1px solid rgb(204, 204, 204); overflow: hidden; padding: 2px 3px; vertical-align: bottom; text-align: center;&quot;&gt;0&lt;/td&gt;&lt;td style=&quot;border: 1px solid rgb(204, 204, 204); overflow: hidden; padding: 2px 3px; vertical-align: bottom; text-align: center;&quot;&gt;1&lt;/td&gt;&lt;td style=&quot;border: 1px solid rgb(204, 204, 204); overflow: hidden; padding: 2px 3px; vertical-align: bottom; text-align: center;&quot;&gt;-&lt;/td&gt;&lt;td style=&quot;border: 1px solid rgb(204, 204, 204); overflow: hidden; padding: 2px 3px; vertical-align: bottom; text-align: center;&quot;&gt;0&lt;/td&gt;&lt;td style=&quot;border: 1px solid rgb(204, 204, 204); overflow: hidden; padding: 2px 3px; vertical-align: bottom; text-align: center;&quot;&gt;0&lt;/td&gt;&lt;td style=&quot;border: 1px solid rgb(204, 204, 204); overflow: hidden; padding: 2px 3px; vertical-align: bottom; background-color: rgb(0, 0, 0);&quot;&gt;&lt;/td&gt;&lt;td style=&quot;border: 1px solid rgb(204, 204, 204); overflow: hidden; padding: 2px 3px; vertical-align: bottom; text-align: center;&quot;&gt;1&lt;/td&gt;&lt;td style=&quot;border: 1px solid rgb(204, 204, 204); overflow: hidden; padding: 2px 3px; vertical-align: bottom; text-align: center;&quot;&gt;0&lt;/td&gt;&lt;td style=&quot;border: 1px solid rgb(204, 204, 204); overflow: hidden; padding: 2px 3px; vertical-align: bottom; text-align: center;&quot;&gt;1&lt;/td&gt;&lt;/tr&gt;&lt;tr style=&quot;height: 21px;&quot;&gt;&lt;td style=&quot;border: 1px solid rgb(204, 204, 204); overflow: hidden; padding: 2px 3px; vertical-align: bottom; text-align: center;&quot;&gt;0&lt;/td&gt;&lt;td style=&quot;border: 1px solid rgb(204, 204, 204); overflow: hidden; padding: 2px 3px; vertical-align: bottom; text-align: center;&quot;&gt;1&lt;/td&gt;&lt;td style=&quot;border: 1px solid rgb(204, 204, 204); overflow: hidden; padding: 2px 3px; vertical-align: bottom; text-align: center;&quot;&gt;-&lt;/td&gt;&lt;td style=&quot;border: 1px solid rgb(204, 204, 204); overflow: hidden; padding: 2px 3px; vertical-align: bottom; text-align: center;&quot;&gt;0&lt;/td&gt;&lt;td style=&quot;border: 1px solid rgb(204, 204, 204); overflow: hidden; padding: 2px 3px; vertical-align: bottom; text-align: center;&quot;&gt;1&lt;/td&gt;&lt;td style=&quot;border: 1px solid rgb(204, 204, 204); overflow: hidden; padding: 2px 3px; vertical-align: bottom; background-color: rgb(0, 0, 0);&quot;&gt;&lt;/td&gt;&lt;td style=&quot;border: 1px solid rgb(204, 204, 204); overflow: hidden; padding: 2px 3px; vertical-align: bottom; text-align: center;&quot;&gt;1&lt;/td&gt;&lt;td style=&quot;border: 1px solid rgb(204, 204, 204); overflow: hidden; padding: 2px 3px; vertical-align: bottom; text-align: center;&quot;&gt;0&lt;/td&gt;&lt;td style=&quot;border: 1px solid rgb(204, 204, 204); overflow: hidden; padding: 2px 3px; vertical-align: bottom; text-align: center;&quot;&gt;0&lt;/td&gt;&lt;/tr&gt;&lt;tr style=&quot;height: 21px;&quot;&gt;&lt;td style=&quot;border: 1px solid rgb(204, 204, 204); overflow: hidden; padding: 2px 3px; vertical-align: bottom; text-align: center;&quot;&gt;0&lt;/td&gt;&lt;td style=&quot;border: 1px solid rgb(204, 204, 204); overflow: hidden; padding: 2px 3px; vertical-align: bottom; text-align: center;&quot;&gt;1&lt;/td&gt;&lt;td style=&quot;border: 1px solid rgb(204, 204, 204); overflow: hidden; padding: 2px 3px; vertical-align: bottom; text-align: center;&quot;&gt;-&lt;/td&gt;&lt;td style=&quot;border: 1px solid rgb(204, 204, 204); overflow: hidden; padding: 2px 3px; vertical-align: bottom; text-align: center;&quot;&gt;1&lt;/td&gt;&lt;td style=&quot;border: 1px solid rgb(204, 204, 204); overflow: hidden; padding: 2px 3px; vertical-align: bottom; text-align: center;&quot;&gt;0&lt;/td&gt;&lt;td style=&quot;border: 1px solid rgb(204, 204, 204); overflow: hidden; padding: 2px 3px; vertical-align: bottom; background-color: rgb(0, 0, 0);&quot;&gt;&lt;/td&gt;&lt;td style=&quot;border: 1px solid rgb(204, 204, 204); overflow: hidden; padding: 2px 3px; vertical-align: bottom; text-align: center;&quot;&gt;0&lt;/td&gt;&lt;td style=&quot;border: 1px solid rgb(204, 204, 204); overflow: hidden; padding: 2px 3px; vertical-align: bottom; text-align: center;&quot;&gt;1&lt;/td&gt;&lt;td style=&quot;border: 1px solid rgb(204, 204, 204); overflow: hidden; padding: 2px 3px; vertical-align: bottom; text-align: center;&quot;&gt;1&lt;/td&gt;&lt;/tr&gt;&lt;tr style=&quot;height: 21px;&quot;&gt;&lt;td style=&quot;border: 1px solid rgb(204, 204, 204); overflow: hidden; padding: 2px 3px; vertical-align: bottom; text-align: center;&quot;&gt;0&lt;/td&gt;&lt;td style=&quot;border: 1px solid rgb(204, 204, 204); overflow: hidden; padding: 2px 3px; vertical-align: bottom; text-align: center;&quot;&gt;1&lt;/td&gt;&lt;td style=&quot;border: 1px solid rgb(204, 204, 204); overflow: hidden; padding: 2px 3px; vertical-align: bottom; text-align: center;&quot;&gt;-&lt;/td&gt;&lt;td style=&quot;border: 1px solid rgb(204, 204, 204); overflow: hidden; padding: 2px 3px; vertical-align: bottom; text-align: center;&quot;&gt;1&lt;/td&gt;&lt;td style=&quot;border: 1px solid rgb(204, 204, 204); overflow: hidden; padding: 2px 3px; vertical-align: bottom; text-align: center;&quot;&gt;1&lt;/td&gt;&lt;td style=&quot;border: 1px solid rgb(204, 204, 204); overflow: hidden; padding: 2px 3px; vertical-align: bottom; background-color: rgb(0, 0, 0);&quot;&gt;&lt;/td&gt;&lt;td style=&quot;border: 1px solid rgb(204, 204, 204); overflow: hidden; padding: 2px 3px; vertical-align: bottom; text-align: center;&quot;&gt;0&lt;/td&gt;&lt;td style=&quot;border: 1px solid rgb(204, 204, 204); overflow: hidden; padding: 2px 3px; vertical-align: bottom; text-align: center;&quot;&gt;1&lt;/td&gt;&lt;td style=&quot;border: 1px solid rgb(204, 204, 204); overflow: hidden; padding: 2px 3px; vertical-align: bottom; text-align: center;&quot;&gt;0&lt;/td&gt;&lt;/tr&gt;&lt;tr style=&quot;height: 21px;&quot;&gt;&lt;td style=&quot;border: 1px solid rgb(204, 204, 204); overflow: hidden; padding: 2px 3px; vertical-align: bottom; text-align: center;&quot;&gt;1&lt;/td&gt;&lt;td style=&quot;border: 1px solid rgb(204, 204, 204); overflow: hidden; padding: 2px 3px; vertical-align: bottom; text-align: center;&quot;&gt;0&lt;/td&gt;&lt;td style=&quot;border: 1px solid rgb(204, 204, 204); overflow: hidden; padding: 2px 3px; vertical-align: bottom; text-align: center;&quot;&gt;-&lt;/td&gt;&lt;td style=&quot;border: 1px solid rgb(204, 204, 204); overflow: hidden; padding: 2px 3px; vertical-align: bottom; text-align: center;&quot;&gt;0&lt;/td&gt;&lt;td style=&quot;border: 1px solid rgb(204, 204, 204); overflow: hidden; padding: 2px 3px; vertical-align: bottom; text-align: center;&quot;&gt;0&lt;/td&gt;&lt;td style=&quot;border: 1px solid rgb(204, 204, 204); overflow: hidden; padding: 2px 3px; vertical-align: bottom; background-color: rgb(0, 0, 0);&quot;&gt;&lt;/td&gt;&lt;td style=&quot;border: 1px solid rgb(204, 204, 204); overflow: hidden; padding: 2px 3px; vertical-align: bottom; text-align: center;&quot;&gt;1&lt;/td&gt;&lt;td style=&quot;border: 1px solid rgb(204, 204, 204); overflow: hidden; padding: 2px 3px; vertical-align: bottom; text-align: center;&quot;&gt;1&lt;/td&gt;&lt;td style=&quot;border: 1px solid rgb(204, 204, 204); overflow: hidden; padding: 2px 3px; vertical-align: bottom; text-align: center;&quot;&gt;0&lt;/td&gt;&lt;/tr&gt;&lt;tr style=&quot;height: 21px;&quot;&gt;&lt;td style=&quot;border: 1px solid rgb(204, 204, 204); overflow: hidden; padding: 2px 3px; vertical-align: bottom; text-align: center;&quot;&gt;1&lt;/td&gt;&lt;td style=&quot;border: 1px solid rgb(204, 204, 204); overflow: hidden; padding: 2px 3px; vertical-align: bottom; text-align: center;&quot;&gt;0&lt;/td&gt;&lt;td style=&quot;border: 1px solid rgb(204, 204, 204); overflow: hidden; padding: 2px 3px; vertical-align: bottom; text-align: center;&quot;&gt;-&lt;/td&gt;&lt;td style=&quot;border: 1px solid rgb(204, 204, 204); overflow: hidden; padding: 2px 3px; vertical-align: bottom; text-align: center;&quot;&gt;0&lt;/td&gt;&lt;td style=&quot;border: 1px solid rgb(204, 204, 204); overflow: hidden; padding: 2px 3px; vertical-align: bottom; text-align: center;&quot;&gt;1&lt;/td&gt;&lt;td style=&quot;border: 1px solid rgb(204, 204, 204); overflow: hidden; padding: 2px 3px; vertical-align: bottom; background-color: rgb(0, 0, 0);&quot;&gt;&lt;/td&gt;&lt;td style=&quot;border: 1px solid rgb(204, 204, 204); overflow: hidden; padding: 2px 3px; vertical-align: bottom; text-align: center;&quot;&gt;1&lt;/td&gt;&lt;td style=&quot;border: 1px solid rgb(204, 204, 204); overflow: hidden; padding: 2px 3px; vertical-align: bottom; text-align: center;&quot;&gt;0&lt;/td&gt;&lt;td style=&quot;border: 1px solid rgb(204, 204, 204); overflow: hidden; padding: 2px 3px; vertical-align: bottom; text-align: center;&quot;&gt;1&lt;/td&gt;&lt;/tr&gt;&lt;tr style=&quot;height: 21px;&quot;&gt;&lt;td style=&quot;border: 1px solid rgb(204, 204, 204); overflow: hidden; padding: 2px 3px; vertical-align: bottom; text-align: center;&quot;&gt;1&lt;/td&gt;&lt;td style=&quot;border: 1px solid rgb(204, 204, 204); overflow: hidden; padding: 2px 3px; vertical-align: bottom; text-align: center;&quot;&gt;0&lt;/td&gt;&lt;td style=&quot;border: 1px solid rgb(204, 204, 204); overflow: hidden; padding: 2px 3px; vertical-align: bottom; text-align: center;&quot;&gt;-&lt;/td&gt;&lt;td style=&quot;border: 1px solid rgb(204, 204, 204); overflow: hidden; padding: 2px 3px; vertical-align: bottom; text-align: center;&quot;&gt;1&lt;/td&gt;&lt;td style=&quot;border: 1px solid rgb(204, 204, 204); overflow: hidden; padding: 2px 3px; vertical-align: bottom; text-align: center;&quot;&gt;0&lt;/td&gt;&lt;td style=&quot;border: 1px solid rgb(204, 204, 204); overflow: hidden; padding: 2px 3px; vertical-align: bottom; background-color: rgb(0, 0, 0);&quot;&gt;&lt;/td&gt;&lt;td style=&quot;border: 1px solid rgb(204, 204, 204); overflow: hidden; padding: 2px 3px; vertical-align: bottom; text-align: center;&quot;&gt;1&lt;/td&gt;&lt;td style=&quot;border: 1px solid rgb(204, 204, 204); overflow: hidden; padding: 2px 3px; vertical-align: bottom; text-align: center;&quot;&gt;0&lt;/td&gt;&lt;td style=&quot;border: 1px solid rgb(204, 204, 204); overflow: hidden; padding: 2px 3px; vertical-align: bottom; text-align: center;&quot;&gt;1&lt;/td&gt;&lt;/tr&gt;&lt;tr style=&quot;height: 21px;&quot;&gt;&lt;td style=&quot;border: 1px solid rgb(204, 204, 204); overflow: hidden; padding: 2px 3px; vertical-align: bottom; text-align: center;&quot;&gt;1&lt;/td&gt;&lt;td style=&quot;border: 1px solid rgb(204, 204, 204); overflow: hidden; padding: 2px 3px; vertical-align: bottom; text-align: center;&quot;&gt;0&lt;/td&gt;&lt;td style=&quot;border: 1px solid rgb(204, 204, 204); overflow: hidden; padding: 2px 3px; vertical-align: bottom; text-align: center;&quot;&gt;-&lt;/td&gt;&lt;td style=&quot;border: 1px solid rgb(204, 204, 204); overflow: hidden; padding: 2px 3px; vertical-align: bottom; text-align: center;&quot;&gt;1&lt;/td&gt;&lt;td style=&quot;border: 1px solid rgb(204, 204, 204); overflow: hidden; padding: 2px 3px; vertical-align: bottom; text-align: center;&quot;&gt;1&lt;/td&gt;&lt;td style=&quot;border: 1px solid rgb(204, 204, 204); overflow: hidden; padding: 2px 3px; vertical-align: bottom; background-color: rgb(0, 0, 0);&quot;&gt;&lt;/td&gt;&lt;td style=&quot;border: 1px solid rgb(204, 204, 204); overflow: hidden; padding: 2px 3px; vertical-align: bottom; text-align: center;&quot;&gt;0&lt;/td&gt;&lt;td style=&quot;border: 1px solid rgb(204, 204, 204); overflow: hidden; padding: 2px 3px; vertical-align: bottom; text-align: center;&quot;&gt;0&lt;/td&gt;&lt;td style=&quot;border: 1px solid rgb(204, 204, 204); overflow: hidden; padding: 2px 3px; vertical-align: bottom; text-align: center;&quot;&gt;1&lt;/td&gt;&lt;/tr&gt;&lt;tr style=&quot;height: 21px;&quot;&gt;&lt;td style=&quot;border: 1px solid rgb(204, 204, 204); overflow: hidden; padding: 2px 3px; vertical-align: bottom; text-align: center;&quot;&gt;1&lt;/td&gt;&lt;td style=&quot;border: 1px solid rgb(204, 204, 204); overflow: hidden; padding: 2px 3px; vertical-align: bottom; text-align: center;&quot;&gt;1&lt;/td&gt;&lt;td style=&quot;border: 1px solid rgb(204, 204, 204); overflow: hidden; padding: 2px 3px; vertical-align: bottom; text-align: center;&quot;&gt;-&lt;/td&gt;&lt;td style=&quot;border: 1px solid rgb(204, 204, 204); overflow: hidden; padding: 2px 3px; vertical-align: bottom; text-align: center;&quot;&gt;0&lt;/td&gt;&lt;td style=&quot;border: 1px solid rgb(204, 204, 204); overflow: hidden; padding: 2px 3px; vertical-align: bottom; text-align: center;&quot;&gt;0&lt;/td&gt;&lt;td style=&quot;border: 1px solid rgb(204, 204, 204); overflow: hidden; padding: 2px 3px; vertical-align: bottom; background-color: rgb(0, 0, 0);&quot;&gt;&lt;/td&gt;&lt;td style=&quot;border: 1px solid rgb(204, 204, 204); overflow: hidden; padding: 2px 3px; vertical-align: bottom; text-align: center;&quot;&gt;1&lt;/td&gt;&lt;td style=&quot;border: 1px solid rgb(204, 204, 204); overflow: hidden; padding: 2px 3px; vertical-align: bottom; text-align: center;&quot;&gt;1&lt;/td&gt;&lt;td style=&quot;border: 1px solid rgb(204, 204, 204); overflow: hidden; padding: 2px 3px; vertical-align: bottom; text-align: center;&quot;&gt;1&lt;/td&gt;&lt;/tr&gt;&lt;tr style=&quot;height: 21px;&quot;&gt;&lt;td style=&quot;border: 1px solid rgb(204, 204, 204); overflow: hidden; padding: 2px 3px; vertical-align: bottom; text-align: center;&quot;&gt;1&lt;/td&gt;&lt;td style=&quot;border: 1px solid rgb(204, 204, 204); overflow: hidden; padding: 2px 3px; vertical-align: bottom; text-align: center;&quot;&gt;1&lt;/td&gt;&lt;td style=&quot;border: 1px solid rgb(204, 204, 204); overflow: hidden; padding: 2px 3px; vertical-align: bottom; text-align: center;&quot;&gt;-&lt;/td&gt;&lt;td style=&quot;border: 1px solid rgb(204, 204, 204); overflow: hidden; padding: 2px 3px; vertical-align: bottom; text-align: center;&quot;&gt;0&lt;/td&gt;&lt;td style=&quot;border: 1px solid rgb(204, 204, 204); overflow: hidden; padding: 2px 3px; vertical-align: bottom; text-align: center;&quot;&gt;1&lt;/td&gt;&lt;td style=&quot;border: 1px solid rgb(204, 204, 204); overflow: hidden; padding: 2px 3px; vertical-align: bottom; background-color: rgb(0, 0, 0);&quot;&gt;&lt;/td&gt;&lt;td style=&quot;border: 1px solid rgb(204, 204, 204); overflow: hidden; padding: 2px 3px; vertical-align: bottom; text-align: center;&quot;&gt;1&lt;/td&gt;&lt;td style=&quot;border: 1px solid rgb(204, 204, 204); overflow: hidden; padding: 2px 3px; vertical-align: bottom; text-align: center;&quot;&gt;1&lt;/td&gt;&lt;td style=&quot;border: 1px solid rgb(204, 204, 204); overflow: hidden; padding: 2px 3px; vertical-align: bottom; text-align: center;&quot;&gt;0&lt;/td&gt;&lt;/tr&gt;&lt;tr style=&quot;height: 21px;&quot;&gt;&lt;td style=&quot;border: 1px solid rgb(204, 204, 204); overflow: hidden; padding: 2px 3px; vertical-align: bottom; text-align: center;&quot;&gt;1&lt;/td&gt;&lt;td style=&quot;border: 1px solid rgb(204, 204, 204); overflow: hidden; padding: 2px 3px; vertical-align: bottom; text-align: center;&quot;&gt;1&lt;/td&gt;&lt;td style=&quot;border: 1px solid rgb(204, 204, 204); overflow: hidden; padding: 2px 3px; vertical-align: bottom; text-align: center;&quot;&gt;-&lt;/td&gt;&lt;td style=&quot;border: 1px solid rgb(204, 204, 204); overflow: hidden; padding: 2px 3px; vertical-align: bottom; text-align: center;&quot;&gt;1&lt;/td&gt;&lt;td style=&quot;border: 1px solid rgb(204, 204, 204); overflow: hidden; padding: 2px 3px; vertical-align: bottom; text-align: center;&quot;&gt;0&lt;/td&gt;&lt;td style=&quot;border: 1px solid rgb(204, 204, 204); overflow: hidden; padding: 2px 3px; vertical-align: bottom; background-color: rgb(0, 0, 0);&quot;&gt;&lt;/td&gt;&lt;td style=&quot;border: 1px solid rgb(204, 204, 204); overflow: hidden; padding: 2px 3px; vertical-align: bottom; text-align: center;&quot;&gt;1&lt;/td&gt;&lt;td style=&quot;border: 1px solid rgb(204, 204, 204); overflow: hidden; padding: 2px 3px; vertical-align: bottom; text-align: center;&quot;&gt;0&lt;/td&gt;&lt;td style=&quot;border: 1px solid rgb(204, 204, 204); overflow: hidden; padding: 2px 3px; vertical-align: bottom; text-align: center;&quot;&gt;1&lt;/td&gt;&lt;/tr&gt;&lt;tr style=&quot;height: 21px;&quot;&gt;&lt;td style=&quot;border: 1px solid rgb(204, 204, 204); overflow: hidden; padding: 2px 3px; vertical-align: bottom; text-align: center;&quot;&gt;1&lt;/td&gt;&lt;td style=&quot;border: 1px solid rgb(204, 204, 204); overflow: hidden; padding: 2px 3px; vertical-align: bottom; text-align: center;&quot;&gt;1&lt;/td&gt;&lt;td style=&quot;border: 1px solid rgb(204, 204, 204); overflow: hidden; padding: 2px 3px; vertical-align: bottom; text-align: center;&quot;&gt;-&lt;/td&gt;&lt;td style=&quot;border: 1px solid rgb(204, 204, 204); overflow: hidden; padding: 2px 3px; vertical-align: bottom; text-align: center;&quot;&gt;1&lt;/td&gt;&lt;td style=&quot;border: 1px solid rgb(204, 204, 204); overflow: hidden; padding: 2px 3px; vertical-align: bottom; text-align: center;&quot;&gt;1&lt;/td&gt;&lt;td style=&quot;border: 1px solid rgb(204, 204, 204); overflow: hidden; padding: 2px 3px; vertical-align: bottom; background-color: rgb(0, 0, 0);&quot;&gt;&lt;/td&gt;&lt;td style=&quot;border: 1px solid rgb(204, 204, 204); overflow: hidden; padding: 2px 3px; vertical-align: bottom; text-align: center;&quot;&gt;1&lt;/td&gt;&lt;td style=&quot;border: 1px solid rgb(204, 204, 204); overflow: hidden; padding: 2px 3px; vertical-align: bottom; text-align: center;&quot;&gt;0&lt;/td&gt;&lt;td style=&quot;border: 1px solid rgb(204, 204, 204); overflow: hidden; padding: 2px 3px; vertical-align: bottom; text-align: center;&quot;&gt;0&lt;/td&gt;&lt;/tr&gt;&lt;/tbody&gt;&lt;/table&gt;" link="&lt;table xmlns=&quot;http://www.w3.org/1999/xhtml&quot; cellspacing=&quot;0&quot; cellpadding=&quot;0&quot; dir=&quot;ltr&quot; border=&quot;1&quot; style=&quot;table-layout:fixed;font-size:10pt;font-family:Arial;width:0px;border-collapse:collapse;border:none&quot; data-sheets-root=&quot;1&quot; data-sheets-baot=&quot;1&quot;&gt;&lt;colgroup&gt;&lt;col width=&quot;23&quot;&gt;&lt;col width=&quot;23&quot;&gt;&lt;col width=&quot;16&quot;&gt;&lt;col width=&quot;23&quot;&gt;&lt;col width=&quot;23&quot;&gt;&lt;col width=&quot;16&quot;&gt;&lt;col width=&quot;43&quot;&gt;&lt;col width=&quot;46&quot;&gt;&lt;col width=&quot;46&quot;&gt;&lt;/colgroup&gt;&lt;tbody&gt;&lt;tr style=&quot;height:21px;&quot;&gt;&lt;td style=&quot;overflow:hidden;padding:2px 3px 2px 3px;vertical-align:bottom;font-size:12pt;font-weight:bold;text-align:center;&quot;&gt;A₂&lt;/td&gt;&lt;td style=&quot;overflow:hidden;padding:2px 3px 2px 3px;vertical-align:bottom;font-size:12pt;font-weight:bold;text-align:center;&quot;&gt;A₁&lt;/td&gt;&lt;td style=&quot;overflow:hidden;padding:2px 3px 2px 3px;vertical-align:bottom;font-size:12pt;font-weight:bold;text-align:center;&quot;&gt;+&lt;/td&gt;&lt;td style=&quot;overflow:hidden;padding:2px 3px 2px 3px;vertical-align:bottom;font-size:12pt;font-weight:bold;text-align:center;&quot;&gt;B₂&lt;/td&gt;&lt;td style=&quot;overflow:hidden;padding:2px 3px 2px 3px;vertical-align:bottom;font-size:12pt;font-weight:bold;text-align:center;&quot;&gt;B₁&lt;/td&gt;&lt;td style=&quot;overflow:hidden;padding:2px 3px 2px 3px;vertical-align:bottom;background-color:#000000;&quot;&gt;&lt;/td&gt;&lt;td style=&quot;overflow:hidden;padding:2px 3px 2px 3px;vertical-align:bottom;font-size:12pt;font-weight:bold;text-align:center;&quot;&gt;Cout&lt;/td&gt;&lt;td style=&quot;overflow:hidden;padding:2px 3px 2px 3px;vertical-align:bottom;font-size:12pt;font-weight:bold;text-align:center;&quot;&gt;Sum₂&lt;/td&gt;&lt;td style=&quot;overflow:hidden;padding:2px 3px 2px 3px;vertical-align:bottom;font-size:12pt;font-weight:bold;text-align:center;&quot;&gt;Sum₁&lt;/td&gt;&lt;/tr&gt;&lt;tr style=&quot;height:21px;&quot;&gt;&lt;td style=&quot;overflow:hidden;padding:2px 3px 2px 3px;vertical-align:bottom;text-align:center;&quot;&gt;0&lt;/td&gt;&lt;td style=&quot;overflow:hidden;padding:2px 3px 2px 3px;vertical-align:bottom;text-align:center;&quot;&gt;0&lt;/td&gt;&lt;td style=&quot;overflow:hidden;padding:2px 3px 2px 3px;vertical-align:bottom;text-align:center;&quot;&gt;+&lt;/td&gt;&lt;td style=&quot;overflow:hidden;padding:2px 3px 2px 3px;vertical-align:bottom;text-align:center;&quot;&gt;0&lt;/td&gt;&lt;td style=&quot;overflow:hidden;padding:2px 3px 2px 3px;vertical-align:bottom;text-align:center;&quot;&gt;0&lt;/td&gt;&lt;td style=&quot;overflow:hidden;padding:2px 3px 2px 3px;vertical-align:bottom;background-color:#000000;&quot;&gt;&lt;/td&gt;&lt;td style=&quot;overflow:hidden;padding:2px 3px 2px 3px;vertical-align:bottom;text-align:center;&quot;&gt;0&lt;/td&gt;&lt;td style=&quot;overflow:hidden;padding:2px 3px 2px 3px;vertical-align:bottom;text-align:center;&quot;&gt;0&lt;/td&gt;&lt;td style=&quot;overflow:hidden;padding:2px 3px 2px 3px;vertical-align:bottom;text-align:center;&quot;&gt;0&lt;/td&gt;&lt;/tr&gt;&lt;tr style=&quot;height:21px;&quot;&gt;&lt;td style=&quot;overflow:hidden;padding:2px 3px 2px 3px;vertical-align:bottom;text-align:center;&quot;&gt;0&lt;/td&gt;&lt;td style=&quot;overflow:hidden;padding:2px 3px 2px 3px;vertical-align:bottom;text-align:center;&quot;&gt;0&lt;/td&gt;&lt;td style=&quot;overflow:hidden;padding:2px 3px 2px 3px;vertical-align:bottom;text-align:center;&quot;&gt;+&lt;/td&gt;&lt;td style=&quot;overflow:hidden;padding:2px 3px 2px 3px;vertical-align:bottom;text-align:center;&quot;&gt;0&lt;/td&gt;&lt;td style=&quot;overflow:hidden;padding:2px 3px 2px 3px;vertical-align:bottom;text-align:center;&quot;&gt;1&lt;/td&gt;&lt;td style=&quot;overflow:hidden;padding:2px 3px 2px 3px;vertical-align:bottom;background-color:#000000;&quot;&gt;&lt;/td&gt;&lt;td style=&quot;overflow:hidden;padding:2px 3px 2px 3px;vertical-align:bottom;text-align:center;&quot;&gt;0&lt;/td&gt;&lt;td style=&quot;overflow:hidden;padding:2px 3px 2px 3px;vertical-align:bottom;text-align:center;&quot;&gt;0&lt;/td&gt;&lt;td style=&quot;overflow:hidden;padding:2px 3px 2px 3px;vertical-align:bottom;text-align:center;&quot;&gt;1&lt;/td&gt;&lt;/tr&gt;&lt;tr style=&quot;height:21px;&quot;&gt;&lt;td style=&quot;overflow:hidden;padding:2px 3px 2px 3px;vertical-align:bottom;text-align:center;&quot;&gt;0&lt;/td&gt;&lt;td style=&quot;overflow:hidden;padding:2px 3px 2px 3px;vertical-align:bottom;text-align:center;&quot;&gt;0&lt;/td&gt;&lt;td style=&quot;overflow:hidden;padding:2px 3px 2px 3px;vertical-align:bottom;text-align:center;&quot;&gt;+&lt;/td&gt;&lt;td style=&quot;overflow:hidden;padding:2px 3px 2px 3px;vertical-align:bottom;text-align:center;&quot;&gt;1&lt;/td&gt;&lt;td style=&quot;overflow:hidden;padding:2px 3px 2px 3px;vertical-align:bottom;text-align:center;&quot;&gt;0&lt;/td&gt;&lt;td style=&quot;overflow:hidden;padding:2px 3px 2px 3px;vertical-align:bottom;background-color:#000000;&quot;&gt;&lt;/td&gt;&lt;td style=&quot;overflow:hidden;padding:2px 3px 2px 3px;vertical-align:bottom;text-align:center;&quot;&gt;0&lt;/td&gt;&lt;td style=&quot;overflow:hidden;padding:2px 3px 2px 3px;vertical-align:bottom;text-align:center;&quot;&gt;1&lt;/td&gt;&lt;td style=&quot;overflow:hidden;padding:2px 3px 2px 3px;vertical-align:bottom;text-align:center;&quot;&gt;0&lt;/td&gt;&lt;/tr&gt;&lt;tr style=&quot;height:21px;&quot;&gt;&lt;td style=&quot;overflow:hidden;padding:2px 3px 2px 3px;vertical-align:bottom;text-align:center;&quot;&gt;0&lt;/td&gt;&lt;td style=&quot;overflow:hidden;padding:2px 3px 2px 3px;vertical-align:bottom;text-align:center;&quot;&gt;0&lt;/td&gt;&lt;td style=&quot;overflow:hidden;padding:2px 3px 2px 3px;vertical-align:bottom;text-align:center;&quot;&gt;+&lt;/td&gt;&lt;td style=&quot;overflow:hidden;padding:2px 3px 2px 3px;vertical-align:bottom;text-align:center;&quot;&gt;1&lt;/td&gt;&lt;td style=&quot;overflow:hidden;padding:2px 3px 2px 3px;vertical-align:bottom;text-align:center;&quot;&gt;1&lt;/td&gt;&lt;td style=&quot;overflow:hidden;padding:2px 3px 2px 3px;vertical-align:bottom;background-color:#000000;&quot;&gt;&lt;/td&gt;&lt;td style=&quot;overflow:hidden;padding:2px 3px 2px 3px;vertical-align:bottom;text-align:center;&quot;&gt;0&lt;/td&gt;&lt;td style=&quot;overflow:hidden;padding:2px 3px 2px 3px;vertical-align:bottom;text-align:center;&quot;&gt;1&lt;/td&gt;&lt;td style=&quot;overflow:hidden;padding:2px 3px 2px 3px;vertical-align:bottom;text-align:center;&quot;&gt;1&lt;/td&gt;&lt;/tr&gt;&lt;tr style=&quot;height:21px;&quot;&gt;&lt;td style=&quot;overflow:hidden;padding:2px 3px 2px 3px;vertical-align:bottom;text-align:center;&quot;&gt;0&lt;/td&gt;&lt;td style=&quot;overflow:hidden;padding:2px 3px 2px 3px;vertical-align:bottom;text-align:center;&quot;&gt;1&lt;/td&gt;&lt;td style=&quot;overflow:hidden;padding:2px 3px 2px 3px;vertical-align:bottom;text-align:center;&quot;&gt;+&lt;/td&gt;&lt;td style=&quot;overflow:hidden;padding:2px 3px 2px 3px;vertical-align:bottom;text-align:center;&quot;&gt;0&lt;/td&gt;&lt;td style=&quot;overflow:hidden;padding:2px 3px 2px 3px;vertical-align:bottom;text-align:center;&quot;&gt;0&lt;/td&gt;&lt;td style=&quot;overflow:hidden;padding:2px 3px 2px 3px;vertical-align:bottom;background-color:#000000;&quot;&gt;&lt;/td&gt;&lt;td style=&quot;overflow:hidden;padding:2px 3px 2px 3px;vertical-align:bottom;text-align:center;&quot;&gt;0&lt;/td&gt;&lt;td style=&quot;overflow:hidden;padding:2px 3px 2px 3px;vertical-align:bottom;text-align:center;&quot;&gt;0&lt;/td&gt;&lt;td style=&quot;overflow:hidden;padding:2px 3px 2px 3px;vertical-align:bottom;text-align:center;&quot;&gt;1&lt;/td&gt;&lt;/tr&gt;&lt;tr style=&quot;height:21px;&quot;&gt;&lt;td style=&quot;overflow:hidden;padding:2px 3px 2px 3px;vertical-align:bottom;text-align:center;&quot;&gt;0&lt;/td&gt;&lt;td style=&quot;overflow:hidden;padding:2px 3px 2px 3px;vertical-align:bottom;text-align:center;&quot;&gt;1&lt;/td&gt;&lt;td style=&quot;overflow:hidden;padding:2px 3px 2px 3px;vertical-align:bottom;text-align:center;&quot;&gt;+&lt;/td&gt;&lt;td style=&quot;overflow:hidden;padding:2px 3px 2px 3px;vertical-align:bottom;text-align:center;&quot;&gt;0&lt;/td&gt;&lt;td style=&quot;overflow:hidden;padding:2px 3px 2px 3px;vertical-align:bottom;text-align:center;&quot;&gt;1&lt;/td&gt;&lt;td style=&quot;overflow:hidden;padding:2px 3px 2px 3px;vertical-align:bottom;background-color:#000000;&quot;&gt;&lt;/td&gt;&lt;td style=&quot;overflow:hidden;padding:2px 3px 2px 3px;vertical-align:bottom;text-align:center;&quot;&gt;0&lt;/td&gt;&lt;td style=&quot;overflow:hidden;padding:2px 3px 2px 3px;vertical-align:bottom;text-align:center;&quot;&gt;1&lt;/td&gt;&lt;td style=&quot;overflow:hidden;padding:2px 3px 2px 3px;vertical-align:bottom;text-align:center;&quot;&gt;0&lt;/td&gt;&lt;/tr&gt;&lt;tr style=&quot;height:21px;&quot;&gt;&lt;td style=&quot;overflow:hidden;padding:2px 3px 2px 3px;vertical-align:bottom;text-align:center;&quot;&gt;0&lt;/td&gt;&lt;td style=&quot;overflow:hidden;padding:2px 3px 2px 3px;vertical-align:bottom;text-align:center;&quot;&gt;1&lt;/td&gt;&lt;td style=&quot;overflow:hidden;padding:2px 3px 2px 3px;vertical-align:bottom;text-align:center;&quot;&gt;+&lt;/td&gt;&lt;td style=&quot;overflow:hidden;padding:2px 3px 2px 3px;vertical-align:bottom;text-align:center;&quot;&gt;1&lt;/td&gt;&lt;td style=&quot;overflow:hidden;padding:2px 3px 2px 3px;vertical-align:bottom;text-align:center;&quot;&gt;0&lt;/td&gt;&lt;td style=&quot;overflow:hidden;padding:2px 3px 2px 3px;vertical-align:bottom;background-color:#000000;&quot;&gt;&lt;/td&gt;&lt;td style=&quot;overflow:hidden;padding:2px 3px 2px 3px;vertical-align:bottom;text-align:center;&quot;&gt;0&lt;/td&gt;&lt;td style=&quot;overflow:hidden;padding:2px 3px 2px 3px;vertical-align:bottom;text-align:center;&quot;&gt;1&lt;/td&gt;&lt;td style=&quot;overflow:hidden;padding:2px 3px 2px 3px;vertical-align:bottom;text-align:center;&quot;&gt;1&lt;/td&gt;&lt;/tr&gt;&lt;tr style=&quot;height:21px;&quot;&gt;&lt;td style=&quot;overflow:hidden;padding:2px 3px 2px 3px;vertical-align:bottom;text-align:center;&quot;&gt;0&lt;/td&gt;&lt;td style=&quot;overflow:hidden;padding:2px 3px 2px 3px;vertical-align:bottom;text-align:center;&quot;&gt;1&lt;/td&gt;&lt;td style=&quot;overflow:hidden;padding:2px 3px 2px 3px;vertical-align:bottom;text-align:center;&quot;&gt;+&lt;/td&gt;&lt;td style=&quot;overflow:hidden;padding:2px 3px 2px 3px;vertical-align:bottom;text-align:center;&quot;&gt;1&lt;/td&gt;&lt;td style=&quot;overflow:hidden;padding:2px 3px 2px 3px;vertical-align:bottom;text-align:center;&quot;&gt;1&lt;/td&gt;&lt;td style=&quot;overflow:hidden;padding:2px 3px 2px 3px;vertical-align:bottom;background-color:#000000;&quot;&gt;&lt;/td&gt;&lt;td style=&quot;overflow:hidden;padding:2px 3px 2px 3px;vertical-align:bottom;text-align:center;&quot;&gt;1&lt;/td&gt;&lt;td style=&quot;overflow:hidden;padding:2px 3px 2px 3px;vertical-align:bottom;text-align:center;&quot;&gt;0&lt;/td&gt;&lt;td style=&quot;overflow:hidden;padding:2px 3px 2px 3px;vertical-align:bottom;text-align:center;&quot;&gt;0&lt;/td&gt;&lt;/tr&gt;&lt;tr style=&quot;height:21px;&quot;&gt;&lt;td style=&quot;overflow:hidden;padding:2px 3px 2px 3px;vertical-align:bottom;text-align:center;&quot;&gt;1&lt;/td&gt;&lt;td style=&quot;overflow:hidden;padding:2px 3px 2px 3px;vertical-align:bottom;text-align:center;&quot;&gt;0&lt;/td&gt;&lt;td style=&quot;overflow:hidden;padding:2px 3px 2px 3px;vertical-align:bottom;text-align:center;&quot;&gt;+&lt;/td&gt;&lt;td style=&quot;overflow:hidden;padding:2px 3px 2px 3px;vertical-align:bottom;text-align:center;&quot;&gt;0&lt;/td&gt;&lt;td style=&quot;overflow:hidden;padding:2px 3px 2px 3px;vertical-align:bottom;text-align:center;&quot;&gt;0&lt;/td&gt;&lt;td style=&quot;overflow:hidden;padding:2px 3px 2px 3px;vertical-align:bottom;background-color:#000000;&quot;&gt;&lt;/td&gt;&lt;td style=&quot;overflow:hidden;padding:2px 3px 2px 3px;vertical-align:bottom;text-align:center;&quot;&gt;0&lt;/td&gt;&lt;td style=&quot;overflow:hidden;padding:2px 3px 2px 3px;vertical-align:bottom;text-align:center;&quot;&gt;1&lt;/td&gt;&lt;td style=&quot;overflow:hidden;padding:2px 3px 2px 3px;vertical-align:bottom;text-align:center;&quot;&gt;0&lt;/td&gt;&lt;/tr&gt;&lt;tr style=&quot;height:21px;&quot;&gt;&lt;td style=&quot;overflow:hidden;padding:2px 3px 2px 3px;vertical-align:bottom;text-align:center;&quot;&gt;1&lt;/td&gt;&lt;td style=&quot;overflow:hidden;padding:2px 3px 2px 3px;vertical-align:bottom;text-align:center;&quot;&gt;0&lt;/td&gt;&lt;td style=&quot;overflow:hidden;padding:2px 3px 2px 3px;vertical-align:bottom;text-align:center;&quot;&gt;+&lt;/td&gt;&lt;td style=&quot;overflow:hidden;padding:2px 3px 2px 3px;vertical-align:bottom;text-align:center;&quot;&gt;0&lt;/td&gt;&lt;td style=&quot;overflow:hidden;padding:2px 3px 2px 3px;vertical-align:bottom;text-align:center;&quot;&gt;1&lt;/td&gt;&lt;td style=&quot;overflow:hidden;padding:2px 3px 2px 3px;vertical-align:bottom;background-color:#000000;&quot;&gt;&lt;/td&gt;&lt;td style=&quot;overflow:hidden;padding:2px 3px 2px 3px;vertical-align:bottom;text-align:center;&quot;&gt;0&lt;/td&gt;&lt;td style=&quot;overflow:hidden;padding:2px 3px 2px 3px;vertical-align:bottom;text-align:center;&quot;&gt;1&lt;/td&gt;&lt;td style=&quot;overflow:hidden;padding:2px 3px 2px 3px;vertical-align:bottom;text-align:center;&quot;&gt;1&lt;/td&gt;&lt;/tr&gt;&lt;tr style=&quot;height:21px;&quot;&gt;&lt;td style=&quot;overflow:hidden;padding:2px 3px 2px 3px;vertical-align:bottom;text-align:center;&quot;&gt;1&lt;/td&gt;&lt;td style=&quot;overflow:hidden;padding:2px 3px 2px 3px;vertical-align:bottom;text-align:center;&quot;&gt;0&lt;/td&gt;&lt;td style=&quot;overflow:hidden;padding:2px 3px 2px 3px;vertical-align:bottom;text-align:center;&quot;&gt;+&lt;/td&gt;&lt;td style=&quot;overflow:hidden;padding:2px 3px 2px 3px;vertical-align:bottom;text-align:center;&quot;&gt;1&lt;/td&gt;&lt;td style=&quot;overflow:hidden;padding:2px 3px 2px 3px;vertical-align:bottom;text-align:center;&quot;&gt;0&lt;/td&gt;&lt;td style=&quot;overflow:hidden;padding:2px 3px 2px 3px;vertical-align:bottom;background-color:#000000;&quot;&gt;&lt;/td&gt;&lt;td style=&quot;overflow:hidden;padding:2px 3px 2px 3px;vertical-align:bottom;text-align:center;&quot;&gt;1&lt;/td&gt;&lt;td style=&quot;overflow:hidden;padding:2px 3px 2px 3px;vertical-align:bottom;text-align:center;&quot;&gt;0&lt;/td&gt;&lt;td style=&quot;overflow:hidden;padding:2px 3px 2px 3px;vertical-align:bottom;text-align:center;&quot;&gt;0&lt;/td&gt;&lt;/tr&gt;&lt;tr style=&quot;height:21px;&quot;&gt;&lt;td style=&quot;overflow:hidden;padding:2px 3px 2px 3px;vertical-align:bottom;text-align:center;&quot;&gt;1&lt;/td&gt;&lt;td style=&quot;overflow:hidden;padding:2px 3px 2px 3px;vertical-align:bottom;text-align:center;&quot;&gt;0&lt;/td&gt;&lt;td style=&quot;overflow:hidden;padding:2px 3px 2px 3px;vertical-align:bottom;text-align:center;&quot;&gt;+&lt;/td&gt;&lt;td style=&quot;overflow:hidden;padding:2px 3px 2px 3px;vertical-align:bottom;text-align:center;&quot;&gt;1&lt;/td&gt;&lt;td style=&quot;overflow:hidden;padding:2px 3px 2px 3px;vertical-align:bottom;text-align:center;&quot;&gt;1&lt;/td&gt;&lt;td style=&quot;overflow:hidden;padding:2px 3px 2px 3px;vertical-align:bottom;background-color:#000000;&quot;&gt;&lt;/td&gt;&lt;td style=&quot;overflow:hidden;padding:2px 3px 2px 3px;vertical-align:bottom;text-align:center;&quot;&gt;1&lt;/td&gt;&lt;td style=&quot;overflow:hidden;padding:2px 3px 2px 3px;vertical-align:bottom;text-align:center;&quot;&gt;0&lt;/td&gt;&lt;td style=&quot;overflow:hidden;padding:2px 3px 2px 3px;vertical-align:bottom;text-align:center;&quot;&gt;1&lt;/td&gt;&lt;/tr&gt;&lt;tr style=&quot;height:21px;&quot;&gt;&lt;td style=&quot;overflow:hidden;padding:2px 3px 2px 3px;vertical-align:bottom;text-align:center;&quot;&gt;1&lt;/td&gt;&lt;td style=&quot;overflow:hidden;padding:2px 3px 2px 3px;vertical-align:bottom;text-align:center;&quot;&gt;1&lt;/td&gt;&lt;td style=&quot;overflow:hidden;padding:2px 3px 2px 3px;vertical-align:bottom;text-align:center;&quot;&gt;+&lt;/td&gt;&lt;td style=&quot;overflow:hidden;padding:2px 3px 2px 3px;vertical-align:bottom;text-align:center;&quot;&gt;0&lt;/td&gt;&lt;td style=&quot;overflow:hidden;padding:2px 3px 2px 3px;vertical-align:bottom;text-align:center;&quot;&gt;0&lt;/td&gt;&lt;td style=&quot;overflow:hidden;padding:2px 3px 2px 3px;vertical-align:bottom;background-color:#000000;&quot;&gt;&lt;/td&gt;&lt;td style=&quot;overflow:hidden;padding:2px 3px 2px 3px;vertical-align:bottom;text-align:center;&quot;&gt;0&lt;/td&gt;&lt;td style=&quot;overflow:hidden;padding:2px 3px 2px 3px;vertical-align:bottom;text-align:center;&quot;&gt;1&lt;/td&gt;&lt;td style=&quot;overflow:hidden;padding:2px 3px 2px 3px;vertical-align:bottom;text-align:center;&quot;&gt;1&lt;/td&gt;&lt;/tr&gt;&lt;tr style=&quot;height:21px;&quot;&gt;&lt;td style=&quot;overflow:hidden;padding:2px 3px 2px 3px;vertical-align:bottom;text-align:center;&quot;&gt;1&lt;/td&gt;&lt;td style=&quot;overflow:hidden;padding:2px 3px 2px 3px;vertical-align:bottom;text-align:center;&quot;&gt;1&lt;/td&gt;&lt;td style=&quot;overflow:hidden;padding:2px 3px 2px 3px;vertical-align:bottom;text-align:center;&quot;&gt;+&lt;/td&gt;&lt;td style=&quot;overflow:hidden;padding:2px 3px 2px 3px;vertical-align:bottom;text-align:center;&quot;&gt;0&lt;/td&gt;&lt;td style=&quot;overflow:hidden;padding:2px 3px 2px 3px;vertical-align:bottom;text-align:center;&quot;&gt;1&lt;/td&gt;&lt;td style=&quot;overflow:hidden;padding:2px 3px 2px 3px;vertical-align:bottom;background-color:#000000;&quot;&gt;&lt;/td&gt;&lt;td style=&quot;overflow:hidden;padding:2px 3px 2px 3px;vertical-align:bottom;text-align:center;&quot;&gt;1&lt;/td&gt;&lt;td style=&quot;overflow:hidden;padding:2px 3px 2px 3px;vertical-align:bottom;text-align:center;&quot;&gt;0&lt;/td&gt;&lt;td style=&quot;overflow:hidden;padding:2px 3px 2px 3px;vertical-align:bottom;text-align:center;&quot;&gt;0&lt;/td&gt;&lt;/tr&gt;&lt;tr style=&quot;height:21px;&quot;&gt;&lt;td style=&quot;overflow:hidden;padding:2px 3px 2px 3px;vertical-align:bottom;text-align:center;&quot;&gt;1&lt;/td&gt;&lt;td style=&quot;overflow:hidden;padding:2px 3px 2px 3px;vertical-align:bottom;text-align:center;&quot;&gt;1&lt;/td&gt;&lt;td style=&quot;overflow:hidden;padding:2px 3px 2px 3px;vertical-align:bottom;text-align:center;&quot;&gt;+&lt;/td&gt;&lt;td style=&quot;overflow:hidden;padding:2px 3px 2px 3px;vertical-align:bottom;text-align:center;&quot;&gt;1&lt;/td&gt;&lt;td style=&quot;overflow:hidden;padding:2px 3px 2px 3px;vertical-align:bottom;text-align:center;&quot;&gt;0&lt;/td&gt;&lt;td style=&quot;overflow:hidden;padding:2px 3px 2px 3px;vertical-align:bottom;background-color:#000000;&quot;&gt;&lt;/td&gt;&lt;td style=&quot;overflow:hidden;padding:2px 3px 2px 3px;vertical-align:bottom;text-align:center;&quot;&gt;1&lt;/td&gt;&lt;td style=&quot;overflow:hidden;padding:2px 3px 2px 3px;vertical-align:bottom;text-align:center;&quot;&gt;0&lt;/td&gt;&lt;td style=&quot;overflow:hidden;padding:2px 3px 2px 3px;vertical-align:bottom;text-align:center;&quot;&gt;1&lt;/td&gt;&lt;/tr&gt;&lt;tr style=&quot;height:21px;&quot;&gt;&lt;td style=&quot;overflow:hidden;padding:2px 3px 2px 3px;vertical-align:bottom;text-align:center;&quot;&gt;1&lt;/td&gt;&lt;td style=&quot;overflow:hidden;padding:2px 3px 2px 3px;vertical-align:bottom;text-align:center;&quot;&gt;1&lt;/td&gt;&lt;td style=&quot;overflow:hidden;padding:2px 3px 2px 3px;vertical-align:bottom;text-align:center;&quot;&gt;+&lt;/td&gt;&lt;td style=&quot;overflow:hidden;padding:2px 3px 2px 3px;vertical-align:bottom;text-align:center;&quot;&gt;1&lt;/td&gt;&lt;td style=&quot;overflow:hidden;padding:2px 3px 2px 3px;vertical-align:bottom;text-align:center;&quot;&gt;1&lt;/td&gt;&lt;td style=&quot;overflow:hidden;padding:2px 3px 2px 3px;vertical-align:bottom;background-color:#000000;&quot;&gt;&lt;/td&gt;&lt;td style=&quot;overflow:hidden;padding:2px 3px 2px 3px;vertical-align:bottom;text-align:center;&quot;&gt;1&lt;/td&gt;&lt;td style=&quot;overflow:hidden;padding:2px 3px 2px 3px;vertical-align:bottom;text-align:center;&quot;&gt;1&lt;/td&gt;&lt;td style=&quot;overflow:hidden;padding:2px 3px 2px 3px;vertical-align:bottom;text-align:center;&quot;&gt;0&lt;/td&gt;&lt;/tr&gt;&lt;/tbody&gt;&lt;/table&gt;" id="130">
                    <mxCell style="text;whiteSpace=wrap;html=1;" parent="1" vertex="1">
                        <mxGeometry x="-275" y="-467" width="290" height="380" as="geometry"/>
                    </mxCell>
                </UserObject>
                <mxCell id="137" style="edgeStyle=orthogonalEdgeStyle;html=1;exitX=0.25;exitY=1;exitDx=0;exitDy=0;rounded=0;curved=0;endArrow=none;endFill=0;" parent="1" source="134" edge="1">
                    <mxGeometry relative="1" as="geometry">
                        <mxPoint x="190" y="170" as="targetPoint"/>
                        <Array as="points">
                            <mxPoint x="344" y="160"/>
                            <mxPoint x="210" y="160"/>
                            <mxPoint x="210" y="190"/>
                            <mxPoint x="190" y="190"/>
                        </Array>
                    </mxGeometry>
                </mxCell>
                <mxCell id="143" style="edgeStyle=orthogonalEdgeStyle;html=1;exitX=1;exitY=0.75;exitDx=0;exitDy=0;entryX=0.026;entryY=0.577;entryDx=0;entryDy=0;entryPerimeter=0;endArrow=none;endFill=0;rounded=0;curved=0;" parent="1" source="134" target="97" edge="1">
                    <mxGeometry relative="1" as="geometry">
                        <mxPoint x="560" y="270" as="targetPoint"/>
                    </mxGeometry>
                </mxCell>
                <mxCell id="134" value="Full Adder" style="rounded=0;whiteSpace=wrap;html=1;" parent="1" vertex="1">
                    <mxGeometry x="314" y="-40" width="120" height="60" as="geometry"/>
                </mxCell>
                <mxCell id="135" style="edgeStyle=orthogonalEdgeStyle;html=1;exitX=0;exitY=0.5;exitDx=0;exitDy=0;entryX=0.004;entryY=0.681;entryDx=0;entryDy=0;entryPerimeter=0;endArrow=none;endFill=0;rounded=0;curved=0;" parent="1" source="28" target="134" edge="1">
                    <mxGeometry relative="1" as="geometry"/>
                </mxCell>
                <mxCell id="138" value="" style="shape=ellipse;fillColor=#000000;strokeColor=none;html=1;sketch=0;" parent="1" vertex="1">
                    <mxGeometry x="205" y="185" width="10" height="10" as="geometry"/>
                </mxCell>
                <mxCell id="139" value="A" style="text;html=1;align=center;verticalAlign=middle;resizable=0;points=[];autosize=1;strokeColor=none;fillColor=none;" parent="1" vertex="1">
                    <mxGeometry x="285" width="30" height="30" as="geometry"/>
                </mxCell>
                <mxCell id="140" value="&lt;b&gt;B&lt;/b&gt;" style="text;html=1;align=center;verticalAlign=middle;resizable=0;points=[];autosize=1;strokeColor=none;fillColor=none;" parent="1" vertex="1">
                    <mxGeometry x="285" y="-50" width="30" height="30" as="geometry"/>
                </mxCell>
                <mxCell id="141" style="edgeStyle=orthogonalEdgeStyle;html=1;exitX=1;exitY=0.25;exitDx=0;exitDy=0;entryX=0;entryY=0.57;entryDx=0;entryDy=0;entryPerimeter=0;rounded=0;curved=0;endArrow=none;endFill=0;" parent="1" source="134" target="11" edge="1">
                    <mxGeometry relative="1" as="geometry"/>
                </mxCell>
                <mxCell id="142" value="Sum" style="text;html=1;align=center;verticalAlign=middle;resizable=0;points=[];autosize=1;strokeColor=none;fillColor=none;" parent="1" vertex="1">
                    <mxGeometry x="434" y="-50" width="50" height="30" as="geometry"/>
                </mxCell>
                <mxCell id="144" value="Cout" style="text;html=1;align=center;verticalAlign=middle;resizable=0;points=[];autosize=1;strokeColor=none;fillColor=none;" parent="1" vertex="1">
                    <mxGeometry x="434" y="-20" width="50" height="30" as="geometry"/>
                </mxCell>
                <mxCell id="146" value="" style="shape=ellipse;fillColor=#000000;strokeColor=none;html=1;sketch=0;" parent="1" vertex="1">
                    <mxGeometry x="507" y="265" width="10" height="10" as="geometry"/>
                </mxCell>
                <mxCell id="147" value="Full Adder" style="rounded=0;whiteSpace=wrap;html=1;" parent="1" vertex="1">
                    <mxGeometry x="255" y="-330" width="120" height="60" as="geometry"/>
                </mxCell>
                <mxCell id="153" style="edgeStyle=orthogonalEdgeStyle;html=1;exitX=1;exitY=0.88;exitDx=0;exitDy=0;endArrow=none;endFill=0;rounded=0;curved=0;" parent="1" source="149" edge="1">
                    <mxGeometry relative="1" as="geometry">
                        <mxPoint x="120" y="50" as="targetPoint"/>
                        <Array as="points">
                            <mxPoint x="20" y="-318"/>
                            <mxPoint x="20" y="50"/>
                        </Array>
                    </mxGeometry>
                </mxCell>
                <mxCell id="212" style="edgeStyle=none;html=1;exitX=1;exitY=0.12;exitDx=0;exitDy=0;endArrow=none;endFill=0;" edge="1" parent="1" source="149">
                    <mxGeometry relative="1" as="geometry">
                        <mxPoint x="30" y="-299" as="targetPoint"/>
                    </mxGeometry>
                </mxCell>
                <mxCell id="149" value="" style="html=1;shape=mxgraph.electrical.electro-mechanical.twoWaySwitch;aspect=fixed;elSwitchState=2;rotation=-180;" parent="1" vertex="1">
                    <mxGeometry x="40" y="-322" width="75" height="26" as="geometry"/>
                </mxCell>
                <mxCell id="162" style="edgeStyle=orthogonalEdgeStyle;html=1;exitX=0;exitY=0.5;exitDx=0;exitDy=0;entryX=0;entryY=0.75;entryDx=0;entryDy=0;rounded=0;curved=0;endArrow=none;endFill=0;" parent="1" source="150" target="147" edge="1">
                    <mxGeometry relative="1" as="geometry"/>
                </mxCell>
                <mxCell id="213" style="edgeStyle=none;html=1;exitX=1;exitY=0.12;exitDx=0;exitDy=0;endArrow=none;endFill=0;" edge="1" parent="1" source="150">
                    <mxGeometry relative="1" as="geometry">
                        <mxPoint x="30" y="-267" as="targetPoint"/>
                    </mxGeometry>
                </mxCell>
                <mxCell id="150" value="" style="html=1;shape=mxgraph.electrical.electro-mechanical.twoWaySwitch;aspect=fixed;elSwitchState=2;rotation=-180;" parent="1" vertex="1">
                    <mxGeometry x="40" y="-290" width="75" height="26" as="geometry"/>
                </mxCell>
                <mxCell id="151" value="Input B2" style="text;html=1;align=center;verticalAlign=middle;resizable=0;points=[];autosize=1;strokeColor=none;fillColor=none;" parent="1" vertex="1">
                    <mxGeometry x="40" y="-344" width="70" height="30" as="geometry"/>
                </mxCell>
                <mxCell id="152" value="Input A2" style="text;html=1;align=center;verticalAlign=middle;resizable=0;points=[];autosize=1;strokeColor=none;fillColor=none;" parent="1" vertex="1">
                    <mxGeometry x="55" y="-270" width="70" height="30" as="geometry"/>
                </mxCell>
                <mxCell id="154" value="" style="shape=ellipse;fillColor=#000000;strokeColor=none;html=1;sketch=0;" parent="1" vertex="1">
                    <mxGeometry x="115" y="45" width="10" height="10" as="geometry"/>
                </mxCell>
                <mxCell id="158" value="" style="shape=ellipse;fillColor=#000000;strokeColor=none;html=1;sketch=0;" parent="1" vertex="1">
                    <mxGeometry x="115" y="185" width="10" height="10" as="geometry"/>
                </mxCell>
                <mxCell id="164" value="B" style="text;html=1;align=center;verticalAlign=middle;resizable=0;points=[];autosize=1;strokeColor=none;fillColor=none;" parent="1" vertex="1">
                    <mxGeometry x="225" y="-338" width="30" height="30" as="geometry"/>
                </mxCell>
                <mxCell id="165" value="A" style="text;html=1;align=center;verticalAlign=middle;resizable=0;points=[];autosize=1;strokeColor=none;fillColor=none;" parent="1" vertex="1">
                    <mxGeometry x="230" y="-282" width="30" height="30" as="geometry"/>
                </mxCell>
                <mxCell id="166" style="edgeStyle=orthogonalEdgeStyle;html=1;exitX=0.25;exitY=1;exitDx=0;exitDy=0;entryX=0;entryY=0.5;entryDx=0;entryDy=0;rounded=0;curved=0;endArrow=none;endFill=0;" parent="1" source="147" target="146" edge="1">
                    <mxGeometry relative="1" as="geometry">
                        <Array as="points">
                            <mxPoint x="280" y="-270"/>
                            <mxPoint x="280" y="320"/>
                            <mxPoint x="512" y="320"/>
                            <mxPoint x="512" y="270"/>
                        </Array>
                    </mxGeometry>
                </mxCell>
                <mxCell id="167" value="Cin" style="text;html=1;align=center;verticalAlign=middle;resizable=0;points=[];autosize=1;strokeColor=none;fillColor=none;" parent="1" vertex="1">
                    <mxGeometry x="275" y="-272" width="40" height="30" as="geometry"/>
                </mxCell>
                <mxCell id="168" value="220 Ω" style="pointerEvents=1;verticalLabelPosition=bottom;shadow=0;dashed=0;align=center;html=1;verticalAlign=top;shape=mxgraph.electrical.resistors.resistor_1;" parent="1" vertex="1">
                    <mxGeometry x="320" y="-240" width="100" height="20" as="geometry"/>
                </mxCell>
                <mxCell id="169" value="Sum" style="text;html=1;align=center;verticalAlign=middle;resizable=0;points=[];autosize=1;strokeColor=none;fillColor=none;" parent="1" vertex="1">
                    <mxGeometry x="397" y="-270" width="50" height="30" as="geometry"/>
                </mxCell>
                <mxCell id="170" value="" style="verticalLabelPosition=bottom;shadow=0;dashed=0;align=center;html=1;verticalAlign=top;shape=mxgraph.electrical.opto_electronics.led_2;pointerEvents=1;rotation=-180;" parent="1" vertex="1">
                    <mxGeometry x="420" y="-260" width="100" height="70" as="geometry"/>
                </mxCell>
                <mxCell id="179" style="edgeStyle=orthogonalEdgeStyle;html=1;exitX=0;exitY=0.5;exitDx=0;exitDy=0;exitPerimeter=0;endArrow=none;endFill=0;rounded=0;curved=0;" parent="1" source="171" edge="1">
                    <mxGeometry relative="1" as="geometry">
                        <mxPoint x="30" y="-150" as="targetPoint"/>
                        <Array as="points">
                            <mxPoint x="110" y="-150"/>
                        </Array>
                    </mxGeometry>
                </mxCell>
                <mxCell id="171" value="220 Ω" style="pointerEvents=1;verticalLabelPosition=bottom;shadow=0;dashed=0;align=center;html=1;verticalAlign=top;shape=mxgraph.electrical.resistors.resistor_1;" parent="1" vertex="1">
                    <mxGeometry x="320" y="-160" width="100" height="20" as="geometry"/>
                </mxCell>
                <mxCell id="172" value="Cout" style="text;html=1;align=center;verticalAlign=middle;resizable=0;points=[];autosize=1;strokeColor=none;fillColor=none;" parent="1" vertex="1">
                    <mxGeometry x="397" y="-190" width="50" height="30" as="geometry"/>
                </mxCell>
                <mxCell id="173" value="" style="verticalLabelPosition=bottom;shadow=0;dashed=0;align=center;html=1;verticalAlign=top;shape=mxgraph.electrical.opto_electronics.led_2;pointerEvents=1;rotation=-180;" parent="1" vertex="1">
                    <mxGeometry x="420" y="-180" width="100" height="70" as="geometry"/>
                </mxCell>
                <mxCell id="175" style="edgeStyle=orthogonalEdgeStyle;html=1;exitX=1;exitY=0.25;exitDx=0;exitDy=0;entryX=0;entryY=0.57;entryDx=0;entryDy=0;entryPerimeter=0;rounded=0;curved=0;endArrow=none;endFill=0;" parent="1" source="147" target="170" edge="1">
                    <mxGeometry relative="1" as="geometry"/>
                </mxCell>
                <mxCell id="176" style="edgeStyle=orthogonalEdgeStyle;html=1;exitX=1;exitY=0.75;exitDx=0;exitDy=0;entryX=0;entryY=0.57;entryDx=0;entryDy=0;entryPerimeter=0;endArrow=none;endFill=0;rounded=0;curved=0;" parent="1" source="147" target="173" edge="1">
                    <mxGeometry relative="1" as="geometry">
                        <Array as="points">
                            <mxPoint x="545" y="-285"/>
                            <mxPoint x="545" y="-150"/>
                        </Array>
                    </mxGeometry>
                </mxCell>
                <mxCell id="182" value="" style="edgeStyle=orthogonalEdgeStyle;html=1;exitX=0;exitY=0.5;exitDx=0;exitDy=0;exitPerimeter=0;rounded=0;endArrow=none;endFill=0;" parent="1" source="180" edge="1">
                    <mxGeometry relative="1" as="geometry">
                        <mxPoint x="30" y="-230" as="targetPoint"/>
                        <mxPoint x="320" y="-230" as="sourcePoint"/>
                        <Array as="points"/>
                    </mxGeometry>
                </mxCell>
                <mxCell id="184" value="Sum" style="text;html=1;align=center;verticalAlign=middle;resizable=0;points=[];autosize=1;strokeColor=none;fillColor=none;" parent="1" vertex="1">
                    <mxGeometry x="369" y="-342" width="50" height="30" as="geometry"/>
                </mxCell>
                <mxCell id="185" value="Cout" style="text;html=1;align=center;verticalAlign=middle;resizable=0;points=[];autosize=1;strokeColor=none;fillColor=none;" parent="1" vertex="1">
                    <mxGeometry x="369" y="-292" width="50" height="30" as="geometry"/>
                </mxCell>
                <mxCell id="194" style="edgeStyle=orthogonalEdgeStyle;html=1;exitX=1;exitY=0.88;exitDx=0;exitDy=0;endArrow=none;endFill=0;rounded=0;" edge="1" parent="1" source="186">
                    <mxGeometry relative="1" as="geometry">
                        <mxPoint x="20" y="-320" as="targetPoint"/>
                    </mxGeometry>
                </mxCell>
                <mxCell id="204" style="edgeStyle=orthogonalEdgeStyle;html=1;exitX=1;exitY=0.12;exitDx=0;exitDy=0;rounded=0;curved=0;endArrow=none;endFill=0;" edge="1" parent="1" source="186">
                    <mxGeometry relative="1" as="geometry">
                        <mxPoint x="150" y="10" as="targetPoint"/>
                        <Array as="points">
                            <mxPoint x="30" y="-357"/>
                            <mxPoint x="30" y="10"/>
                            <mxPoint x="151" y="10"/>
                        </Array>
                    </mxGeometry>
                </mxCell>
                <mxCell id="186" value="" style="html=1;shape=mxgraph.electrical.electro-mechanical.twoWaySwitch;aspect=fixed;elSwitchState=2;rotation=-180;" vertex="1" parent="1">
                    <mxGeometry x="40" y="-380" width="75" height="26" as="geometry"/>
                </mxCell>
                <mxCell id="189" value="" style="shape=ellipse;fillColor=#000000;strokeColor=none;html=1;sketch=0;" vertex="1" parent="1">
                    <mxGeometry x="25" y="-155" width="10" height="10" as="geometry"/>
                </mxCell>
                <mxCell id="193" style="edgeStyle=orthogonalEdgeStyle;html=1;exitX=1;exitY=0.5;exitDx=0;exitDy=0;exitPerimeter=0;entryX=0;entryY=0.25;entryDx=0;entryDy=0;rounded=0;endArrow=none;endFill=0;" edge="1" parent="1" source="191" target="147">
                    <mxGeometry relative="1" as="geometry"/>
                </mxCell>
                <mxCell id="191" value="" style="verticalLabelPosition=bottom;shadow=0;dashed=0;align=center;html=1;verticalAlign=top;shape=mxgraph.electrical.logic_gates.logic_gate;operation=xor;" vertex="1" parent="1">
                    <mxGeometry x="165" y="-420" width="100" height="60" as="geometry"/>
                </mxCell>
                <mxCell id="192" style="edgeStyle=orthogonalEdgeStyle;html=1;exitX=0;exitY=0.5;exitDx=0;exitDy=0;entryX=0;entryY=0.75;entryDx=0;entryDy=0;entryPerimeter=0;rounded=0;curved=0;endArrow=none;endFill=0;" edge="1" parent="1" source="149" target="191">
                    <mxGeometry relative="1" as="geometry">
                        <Array as="points">
                            <mxPoint x="165" y="-309"/>
                        </Array>
                    </mxGeometry>
                </mxCell>
                <mxCell id="197" value="" style="shape=ellipse;fillColor=#000000;strokeColor=none;html=1;sketch=0;" vertex="1" parent="1">
                    <mxGeometry x="15" y="-324" width="10" height="10" as="geometry"/>
                </mxCell>
                <mxCell id="198" style="edgeStyle=orthogonalEdgeStyle;html=1;exitX=0;exitY=0.5;exitDx=0;exitDy=0;entryX=0;entryY=0.25;entryDx=0;entryDy=0;entryPerimeter=0;rounded=0;curved=0;endArrow=none;endFill=0;" edge="1" parent="1" source="186" target="191">
                    <mxGeometry relative="1" as="geometry"/>
                </mxCell>
                <mxCell id="203" value="" style="edgeStyle=none;html=1;exitX=1;exitY=0.88;exitDx=0;exitDy=0;endArrow=none;endFill=0;" edge="1" parent="1" source="150" target="202">
                    <mxGeometry relative="1" as="geometry">
                        <mxPoint x="20.000000000000114" y="-286.9032258064516" as="targetPoint"/>
                        <mxPoint x="34" y="-287" as="sourcePoint"/>
                    </mxGeometry>
                </mxCell>
                <mxCell id="202" value="" style="shape=ellipse;fillColor=#000000;strokeColor=none;html=1;sketch=0;" vertex="1" parent="1">
                    <mxGeometry x="15" y="-292" width="10" height="10" as="geometry"/>
                </mxCell>
                <mxCell id="205" value="" style="shape=ellipse;fillColor=#000000;strokeColor=none;html=1;sketch=0;" vertex="1" parent="1">
                    <mxGeometry x="145" y="6" width="10" height="10" as="geometry"/>
                </mxCell>
                <mxCell id="206" value="" style="verticalLabelPosition=bottom;shadow=0;dashed=0;align=center;html=1;verticalAlign=top;shape=mxgraph.electrical.logic_gates.logic_gate;operation=xor;" vertex="1" parent="1">
                    <mxGeometry x="214" y="-54" width="100" height="60" as="geometry"/>
                </mxCell>
                <mxCell id="209" style="edgeStyle=orthogonalEdgeStyle;html=1;exitX=0;exitY=0.5;exitDx=0;exitDy=0;entryX=0;entryY=0.75;entryDx=0;entryDy=0;entryPerimeter=0;rounded=0;endArrow=none;endFill=0;" edge="1" parent="1" source="42" target="206">
                    <mxGeometry relative="1" as="geometry">
                        <Array as="points">
                            <mxPoint x="204" y="-70"/>
                            <mxPoint x="204" y="-9"/>
                        </Array>
                    </mxGeometry>
                </mxCell>
                <mxCell id="211" value="" style="edgeStyle=orthogonalEdgeStyle;html=1;exitX=0;exitY=0.5;exitDx=0;exitDy=0;exitPerimeter=0;rounded=0;endArrow=none;endFill=0;" edge="1" parent="1" source="168" target="180">
                    <mxGeometry relative="1" as="geometry">
                        <mxPoint x="30" y="-230" as="targetPoint"/>
                        <mxPoint x="320" y="-230" as="sourcePoint"/>
                        <Array as="points">
                            <mxPoint x="110" y="-230"/>
                        </Array>
                    </mxGeometry>
                </mxCell>
                <mxCell id="180" value="" style="shape=ellipse;fillColor=#000000;strokeColor=none;html=1;sketch=0;" parent="1" vertex="1">
                    <mxGeometry x="27" y="-235" width="10" height="10" as="geometry"/>
                </mxCell>
                <mxCell id="214" value="M" style="text;html=1;align=center;verticalAlign=middle;resizable=0;points=[];autosize=1;strokeColor=none;fillColor=none;" vertex="1" parent="1">
                    <mxGeometry x="46" y="-405" width="30" height="30" as="geometry"/>
                </mxCell>
                <mxCell id="215" style="edgeStyle=orthogonalEdgeStyle;html=1;exitX=0;exitY=0.5;exitDx=0;exitDy=0;entryX=0;entryY=0.25;entryDx=0;entryDy=0;entryPerimeter=0;rounded=0;endArrow=none;endFill=0;" edge="1" parent="1" source="186" target="206">
                    <mxGeometry relative="1" as="geometry">
                        <Array as="points">
                            <mxPoint x="120" y="-367"/>
                            <mxPoint x="120" y="-120"/>
                            <mxPoint x="214" y="-120"/>
                        </Array>
                    </mxGeometry>
                </mxCell>
                <mxCell id="216" value="" style="shape=ellipse;fillColor=#000000;strokeColor=none;html=1;sketch=0;" vertex="1" parent="1">
                    <mxGeometry x="115" y="-372" width="10" height="10" as="geometry"/>
                </mxCell>
            </root>
        </mxGraphModel>
    </diagram>
</mxfile>